<svg xmlns="http://www.w3.org/2000/svg" width="200" height="50" baseProfile="full"><path stroke="#444" stroke-width="2" d="M10 0h180l10 10v30l-10 10H10L0 40V10Z"/><path fill="none" stroke="#444" d="M5 5h10v10H5Zm180 0h10v10h-10ZM5 35h10v10H5Zm180 0h10v10h-10Z"/><text x="100" y="30" fill="#444" font-family="monospace" font-size="16" font-weight="bold" text-anchor="middle">CONFIRM</text><path stroke="#000" d="M0 1h200M0 4h200M0 7h200M0 10h200M0 13h200M0 16h200M0 19h200M0 22h200M0 25h200M0 28h200M0 31h200M0 34h200M0 37h200M0 40h200M0 43h200M0 46h200M0 49h200" opacity=".2"/></svg>