<svg xmlns="http://www.w3.org/2000/svg" width="500" height="500" baseProfile="full"><rect width="100%" height="100%" fill="none"/><path fill="none" stroke="#06C" d="M-15-25.98-30 0h-30l-15-25.98 15-25.98h30z" opacity=".2"/><path fill="none" stroke="#06C" d="M30-51.96 15-25.98h-30l-15-25.98 15-25.98h30z" opacity=".2"/><path fill="none" stroke="#06C" d="M75-25.98 60 0H30L15-25.98l15-25.98h30z" opacity=".2"/><path fill="none" stroke="#06C" d="m120-51.96-15 25.98H75L60-51.96l15-25.98h30z" opacity=".2"/><path fill="none" stroke="#06C" d="M165-25.98 150 0h-30l-15-25.98 15-25.98h30z" opacity=".2"/><path fill="none" stroke="#06C" d="m210-51.96-15 25.98h-30l-15-25.98 15-25.98h30z" opacity=".2"/><path fill="none" stroke="#06C" d="M255-25.98 240 0h-30l-15-25.98 15-25.98h30z" opacity=".2"/><path fill="none" stroke="#06C" d="m300-51.96-15 25.98h-30l-15-25.98 15-25.98h30z" opacity=".2"/><path fill="none" stroke="#06C" d="M345-25.98 330 0h-30l-15-25.98 15-25.98h30z" opacity=".2"/><path fill="none" stroke="#06C" d="m390-51.96-15 25.98h-30l-15-25.98 15-25.98h30z" opacity=".2"/><path fill="none" stroke="#06C" d="M435-25.98 420 0h-30l-15-25.98 15-25.98h30z" opacity=".2"/><path fill="none" stroke="#06C" d="m480-51.96-15 25.98h-30l-15-25.98 15-25.98h30z" opacity=".2"/><path fill="none" stroke="#06C" d="M525-25.98 510 0h-30l-15-25.98 15-25.98h30z" opacity=".2"/><path fill="none" stroke="#06C" d="m570-51.96-15 25.98h-30l-15-25.98 15-25.98h30z" opacity=".2"/><path fill="none" stroke="#06C" d="M615-25.98 600 0h-30l-15-25.98 15-25.98h30z" opacity=".2"/><path fill="none" stroke="#06C" d="m660-51.96-15 25.98h-30l-15-25.98 15-25.98h30z" opacity=".2"/><path fill="none" stroke="#06C" d="M705-25.98 690 0h-30l-15-25.98 15-25.98h30z" opacity=".2"/><path fill="none" stroke="#06C" d="m750-51.96-15 25.98h-30l-15-25.98 15-25.98h30z" opacity=".2"/><path fill="none" stroke="#06C" d="M795-25.98 780 0h-30l-15-25.98 15-25.98h30zM-15 25.98l-15 25.98h-30l-15-25.98L-60 0h30z" opacity=".2"/><path fill="none" stroke="#06C" d="M30 0 15 25.98h-30L-30 0l15-25.98h30z" opacity=".2"/><path fill="none" stroke="#06C" d="M75 25.98 60 51.96H30L15 25.98 30 0h30z" opacity=".2"/><path fill="none" stroke="#06C" d="m120 0-15 25.98H75L60 0l15-25.98h30z" opacity=".2"/><path fill="none" stroke="#06C" d="m165 25.98-15 25.98h-30l-15-25.98L120 0h30z" opacity=".2"/><path fill="none" stroke="#06C" d="m210 0-15 25.98h-30L150 0l15-25.98h30z" opacity=".2"/><path fill="none" stroke="#06C" d="m255 25.98-15 25.98h-30l-15-25.98L210 0h30z" opacity=".2"/><path fill="none" stroke="#06C" d="m300 0-15 25.98h-30L240 0l15-25.98h30z" opacity=".2"/><path fill="none" stroke="#06C" d="m345 25.98-15 25.98h-30l-15-25.98L300 0h30z" opacity=".2"/><path fill="none" stroke="#06C" d="m390 0-15 25.98h-30L330 0l15-25.98h30z" opacity=".2"/><path fill="none" stroke="#06C" d="m435 25.98-15 25.98h-30l-15-25.98L390 0h30z" opacity=".2"/><path fill="none" stroke="#06C" d="m480 0-15 25.98h-30L420 0l15-25.98h30z" opacity=".2"/><path fill="none" stroke="#06C" d="m525 25.98-15 25.98h-30l-15-25.98L480 0h30z" opacity=".2"/><path fill="none" stroke="#06C" d="m570 0-15 25.98h-30L510 0l15-25.98h30z" opacity=".2"/><path fill="none" stroke="#06C" d="m615 25.98-15 25.98h-30l-15-25.98L570 0h30z" opacity=".2"/><path fill="none" stroke="#06C" d="m660 0-15 25.98h-30L600 0l15-25.98h30z" opacity=".2"/><path fill="none" stroke="#06C" d="m705 25.98-15 25.98h-30l-15-25.98L660 0h30z" opacity=".2"/><path fill="none" stroke="#06C" d="m750 0-15 25.98h-30L690 0l15-25.98h30z" opacity=".2"/><path fill="none" stroke="#06C" d="m795 25.98-15 25.98h-30l-15-25.98L750 0h30zM-15 77.94l-15 25.98h-30l-15-25.98 15-25.98h30z" opacity=".2"/><path fill="none" stroke="#06C" d="M30 51.96 15 77.94h-30l-15-25.98 15-25.98h30z" opacity=".2"/><path fill="none" stroke="#06C" d="m75 77.94-15 25.98H30L15 77.94l15-25.98h30z" opacity=".2"/><path fill="none" stroke="#06C" d="m120 51.96-15 25.98H75L60 51.96l15-25.98h30z" opacity=".2"/><path fill="none" stroke="#06C" d="m165 77.94-15 25.98h-30l-15-25.98 15-25.98h30z" opacity=".2"/><path fill="none" stroke="#06C" d="m210 51.96-15 25.98h-30l-15-25.98 15-25.98h30z" opacity=".2"/><path fill="none" stroke="#06C" d="m255 77.94-15 25.98h-30l-15-25.98 15-25.98h30z" opacity=".2"/><path fill="none" stroke="#06C" d="m300 51.96-15 25.98h-30l-15-25.98 15-25.98h30z" opacity=".2"/><path fill="none" stroke="#06C" d="m345 77.94-15 25.98h-30l-15-25.98 15-25.98h30z" opacity=".2"/><path fill="none" stroke="#06C" d="m390 51.96-15 25.98h-30l-15-25.98 15-25.98h30z" opacity=".2"/><path fill="none" stroke="#06C" d="m435 77.94-15 25.98h-30l-15-25.98 15-25.98h30z" opacity=".2"/><path fill="none" stroke="#06C" d="m480 51.96-15 25.98h-30l-15-25.98 15-25.98h30z" opacity=".2"/><path fill="none" stroke="#06C" d="m525 77.94-15 25.98h-30l-15-25.98 15-25.98h30z" opacity=".2"/><path fill="none" stroke="#06C" d="m570 51.96-15 25.98h-30l-15-25.98 15-25.98h30z" opacity=".2"/><path fill="none" stroke="#06C" d="m615 77.94-15 25.98h-30l-15-25.98 15-25.98h30z" opacity=".2"/><path fill="none" stroke="#06C" d="m660 51.96-15 25.98h-30l-15-25.98 15-25.98h30z" opacity=".2"/><path fill="none" stroke="#06C" d="m705 77.94-15 25.98h-30l-15-25.98 15-25.98h30z" opacity=".2"/><path fill="none" stroke="#06C" d="m750 51.96-15 25.98h-30l-15-25.98 15-25.98h30z" opacity=".2"/><path fill="none" stroke="#06C" d="m795 77.94-15 25.98h-30l-15-25.98 15-25.98h30zM-15 129.9l-15 25.98h-30l-15-25.98 15-25.98h30z" opacity=".2"/><path fill="none" stroke="#06C" d="M30 103.92 15 129.9h-30l-15-25.98 15-25.98h30z" opacity=".2"/><path fill="none" stroke="#06C" d="m75 129.9-15 25.98H30L15 129.9l15-25.98h30z" opacity=".2"/><path fill="none" stroke="#06C" d="m120 103.92-15 25.98H75l-15-25.98 15-25.98h30z" opacity=".2"/><path fill="none" stroke="#06C" d="m165 129.9-15 25.98h-30l-15-25.98 15-25.98h30z" opacity=".2"/><path fill="none" stroke="#06C" d="m210 103.92-15 25.98h-30l-15-25.98 15-25.98h30z" opacity=".2"/><path fill="none" stroke="#06C" d="m255 129.9-15 25.98h-30l-15-25.98 15-25.98h30z" opacity=".2"/><path fill="none" stroke="#06C" d="m300 103.92-15 25.98h-30l-15-25.98 15-25.98h30z" opacity=".2"/><path fill="none" stroke="#06C" d="m345 129.9-15 25.98h-30l-15-25.98 15-25.98h30z" opacity=".2"/><path fill="none" stroke="#06C" d="m390 103.92-15 25.98h-30l-15-25.98 15-25.98h30z" opacity=".2"/><path fill="none" stroke="#06C" d="m435 129.9-15 25.98h-30l-15-25.98 15-25.98h30z" opacity=".2"/><path fill="none" stroke="#06C" d="m480 103.92-15 25.98h-30l-15-25.98 15-25.98h30z" opacity=".2"/><path fill="none" stroke="#06C" d="m525 129.9-15 25.98h-30l-15-25.98 15-25.98h30z" opacity=".2"/><path fill="none" stroke="#06C" d="m570 103.92-15 25.98h-30l-15-25.98 15-25.98h30z" opacity=".2"/><path fill="none" stroke="#06C" d="m615 129.9-15 25.98h-30l-15-25.98 15-25.98h30z" opacity=".2"/><path fill="none" stroke="#06C" d="m660 103.92-15 25.98h-30l-15-25.98 15-25.98h30z" opacity=".2"/><path fill="none" stroke="#06C" d="m705 129.9-15 25.98h-30l-15-25.98 15-25.98h30z" opacity=".2"/><path fill="none" stroke="#06C" d="m750 103.92-15 25.98h-30l-15-25.98 15-25.98h30z" opacity=".2"/><path fill="none" stroke="#06C" d="m795 129.9-15 25.98h-30l-15-25.98 15-25.98h30zm-810 51.97-15 25.98h-30l-15-25.98 15-25.99h30z" opacity=".2"/><path fill="none" stroke="#06C" d="m30 155.88-15 25.99h-30l-15-25.99 15-25.98h30z" opacity=".2"/><path fill="none" stroke="#06C" d="m75 181.87-15 25.98H30l-15-25.98 15-25.99h30z" opacity=".2"/><path fill="none" stroke="#06C" d="m120 155.88-15 25.99H75l-15-25.99 15-25.98h30z" opacity=".2"/><path fill="none" stroke="#06C" d="m165 181.87-15 25.98h-30l-15-25.98 15-25.99h30z" opacity=".2"/><path fill="none" stroke="#06C" d="m210 155.88-15 25.99h-30l-15-25.99 15-25.98h30z" opacity=".2"/><path fill="none" stroke="#06C" d="m255 181.87-15 25.98h-30l-15-25.98 15-25.99h30z" opacity=".2"/><path fill="none" stroke="#06C" d="m300 155.88-15 25.99h-30l-15-25.99 15-25.98h30z" opacity=".2"/><path fill="none" stroke="#06C" d="m345 181.87-15 25.98h-30l-15-25.98 15-25.99h30z" opacity=".2"/><path fill="none" stroke="#06C" d="m390 155.88-15 25.99h-30l-15-25.99 15-25.98h30z" opacity=".2"/><path fill="none" stroke="#06C" d="m435 181.87-15 25.98h-30l-15-25.98 15-25.99h30z" opacity=".2"/><path fill="none" stroke="#06C" d="m480 155.88-15 25.99h-30l-15-25.99 15-25.98h30z" opacity=".2"/><path fill="none" stroke="#06C" d="m525 181.87-15 25.98h-30l-15-25.98 15-25.99h30z" opacity=".2"/><path fill="none" stroke="#06C" d="m570 155.88-15 25.99h-30l-15-25.99 15-25.98h30z" opacity=".2"/><path fill="none" stroke="#06C" d="m615 181.87-15 25.98h-30l-15-25.98 15-25.99h30z" opacity=".2"/><path fill="none" stroke="#06C" d="m660 155.88-15 25.99h-30l-15-25.99 15-25.98h30z" opacity=".2"/><path fill="none" stroke="#06C" d="m705 181.87-15 25.98h-30l-15-25.98 15-25.99h30z" opacity=".2"/><path fill="none" stroke="#06C" d="m750 155.88-15 25.99h-30l-15-25.99 15-25.98h30z" opacity=".2"/><path fill="none" stroke="#06C" d="m795 181.87-15 25.98h-30l-15-25.98 15-25.99h30zm-810 51.96-15 25.98h-30l-15-25.98 15-25.98h30zm45-25.98-15 25.98h-30l-15-25.98 15-25.98h30zm45 25.98-15 25.98H30l-15-25.98 15-25.98h30zm45-25.98-15 25.98H75l-15-25.98 15-25.98h30zm45 25.98-15 25.98h-30l-15-25.98 15-25.98h30zm45-25.98-15 25.98h-30l-15-25.98 15-25.98h30zm45 25.98-15 25.98h-30l-15-25.98 15-25.98h30zm45-25.98-15 25.98h-30l-15-25.98 15-25.98h30zm45 25.98-15 25.98h-30l-15-25.98 15-25.98h30zm45-25.98-15 25.98h-30l-15-25.98 15-25.98h30zm45 25.98-15 25.98h-30l-15-25.98 15-25.98h30zm45-25.98-15 25.98h-30l-15-25.98 15-25.98h30zm45 25.98-15 25.98h-30l-15-25.98 15-25.98h30zm45-25.98-15 25.98h-30l-15-25.98 15-25.98h30zm45 25.98-15 25.98h-30l-15-25.98 15-25.98h30zm45-25.98-15 25.98h-30l-15-25.98 15-25.98h30zm45 25.98-15 25.98h-30l-15-25.98 15-25.98h30z" opacity=".2"/><path fill="none" stroke="#06C" d="m750 207.85-15 25.98h-30l-15-25.98 15-25.98h30zm45 25.98-15 25.98h-30l-15-25.98 15-25.98h30zm-810 51.96-15 25.98h-30l-15-25.98 15-25.98h30z" opacity=".2"/><path fill="none" stroke="#06C" d="m30 259.81-15 25.98h-30l-15-25.98 15-25.98h30z" opacity=".2"/><path fill="none" stroke="#06C" d="m75 285.79-15 25.98H30l-15-25.98 15-25.98h30z" opacity=".2"/><path fill="none" stroke="#06C" d="m120 259.81-15 25.98H75l-15-25.98 15-25.98h30z" opacity=".2"/><path fill="none" stroke="#06C" d="m165 285.79-15 25.98h-30l-15-25.98 15-25.98h30z" opacity=".2"/><path fill="none" stroke="#06C" d="m210 259.81-15 25.98h-30l-15-25.98 15-25.98h30z" opacity=".2"/><path fill="none" stroke="#06C" d="m255 285.79-15 25.98h-30l-15-25.98 15-25.98h30z" opacity=".2"/><path fill="none" stroke="#06C" d="m300 259.81-15 25.98h-30l-15-25.98 15-25.98h30z" opacity=".2"/><path fill="none" stroke="#06C" d="m345 285.79-15 25.98h-30l-15-25.98 15-25.98h30z" opacity=".2"/><path fill="none" stroke="#06C" d="m390 259.81-15 25.98h-30l-15-25.98 15-25.98h30z" opacity=".2"/><path fill="none" stroke="#06C" d="m435 285.79-15 25.98h-30l-15-25.98 15-25.98h30z" opacity=".2"/><path fill="none" stroke="#06C" d="m480 259.81-15 25.98h-30l-15-25.98 15-25.98h30z" opacity=".2"/><path fill="none" stroke="#06C" d="m525 285.79-15 25.98h-30l-15-25.98 15-25.98h30z" opacity=".2"/><path fill="none" stroke="#06C" d="m570 259.81-15 25.98h-30l-15-25.98 15-25.98h30z" opacity=".2"/><path fill="none" stroke="#06C" d="m615 285.79-15 25.98h-30l-15-25.98 15-25.98h30z" opacity=".2"/><path fill="none" stroke="#06C" d="m660 259.81-15 25.98h-30l-15-25.98 15-25.98h30z" opacity=".2"/><path fill="none" stroke="#06C" d="m705 285.79-15 25.98h-30l-15-25.98 15-25.98h30z" opacity=".2"/><path fill="none" stroke="#06C" d="m750 259.81-15 25.98h-30l-15-25.98 15-25.98h30z" opacity=".2"/><path fill="none" stroke="#06C" d="m795 285.79-15 25.98h-30l-15-25.98 15-25.98h30zm-810 51.96-15 25.98h-30l-15-25.98 15-25.98h30z" opacity=".2"/><path fill="none" stroke="#06C" d="m30 311.77-15 25.98h-30l-15-25.98 15-25.98h30z" opacity=".2"/><path fill="none" stroke="#06C" d="m75 337.75-15 25.98H30l-15-25.98 15-25.98h30z" opacity=".2"/><path fill="none" stroke="#06C" d="m120 311.77-15 25.98H75l-15-25.98 15-25.98h30z" opacity=".2"/><path fill="none" stroke="#06C" d="m165 337.75-15 25.98h-30l-15-25.98 15-25.98h30z" opacity=".2"/><path fill="none" stroke="#06C" d="m210 311.77-15 25.98h-30l-15-25.98 15-25.98h30z" opacity=".2"/><path fill="none" stroke="#06C" d="m255 337.75-15 25.98h-30l-15-25.98 15-25.98h30z" opacity=".2"/><path fill="none" stroke="#06C" d="m300 311.77-15 25.98h-30l-15-25.98 15-25.98h30z" opacity=".2"/><path fill="none" stroke="#06C" d="m345 337.75-15 25.98h-30l-15-25.98 15-25.98h30z" opacity=".2"/><path fill="none" stroke="#06C" d="m390 311.77-15 25.98h-30l-15-25.98 15-25.98h30z" opacity=".2"/><path fill="none" stroke="#06C" d="m435 337.75-15 25.98h-30l-15-25.98 15-25.98h30z" opacity=".2"/><path fill="none" stroke="#06C" d="m480 311.77-15 25.98h-30l-15-25.98 15-25.98h30z" opacity=".2"/><path fill="none" stroke="#06C" d="m525 337.75-15 25.98h-30l-15-25.98 15-25.98h30z" opacity=".2"/><path fill="none" stroke="#06C" d="m570 311.77-15 25.98h-30l-15-25.98 15-25.98h30z" opacity=".2"/><path fill="none" stroke="#06C" d="m615 337.75-15 25.98h-30l-15-25.98 15-25.98h30z" opacity=".2"/><path fill="none" stroke="#06C" d="m660 311.77-15 25.98h-30l-15-25.98 15-25.98h30z" opacity=".2"/><path fill="none" stroke="#06C" d="m705 337.75-15 25.98h-30l-15-25.98 15-25.98h30z" opacity=".2"/><path fill="none" stroke="#06C" d="m750 311.77-15 25.98h-30l-15-25.98 15-25.98h30z" opacity=".2"/><path fill="none" stroke="#06C" d="m795 337.75-15 25.98h-30l-15-25.98 15-25.98h30zm-810 51.96-15 25.98h-30l-15-25.98 15-25.98h30z" opacity=".2"/><path fill="none" stroke="#06C" d="m30 363.73-15 25.98h-30l-15-25.98 15-25.98h30z" opacity=".2"/><path fill="none" stroke="#06C" d="m75 389.71-15 25.98H30l-15-25.98 15-25.98h30z" opacity=".2"/><path fill="none" stroke="#06C" d="m120 363.73-15 25.98H75l-15-25.98 15-25.98h30z" opacity=".2"/><path fill="none" stroke="#06C" d="m165 389.71-15 25.98h-30l-15-25.98 15-25.98h30z" opacity=".2"/><path fill="none" stroke="#06C" d="m210 363.73-15 25.98h-30l-15-25.98 15-25.98h30z" opacity=".2"/><path fill="none" stroke="#06C" d="m255 389.71-15 25.98h-30l-15-25.98 15-25.98h30z" opacity=".2"/><path fill="none" stroke="#06C" d="m300 363.73-15 25.98h-30l-15-25.98 15-25.98h30z" opacity=".2"/><path fill="none" stroke="#06C" d="m345 389.71-15 25.98h-30l-15-25.98 15-25.98h30z" opacity=".2"/><path fill="none" stroke="#06C" d="m390 363.73-15 25.98h-30l-15-25.98 15-25.98h30z" opacity=".2"/><path fill="none" stroke="#06C" d="m435 389.71-15 25.98h-30l-15-25.98 15-25.98h30z" opacity=".2"/><path fill="none" stroke="#06C" d="m480 363.73-15 25.98h-30l-15-25.98 15-25.98h30z" opacity=".2"/><path fill="none" stroke="#06C" d="m525 389.71-15 25.98h-30l-15-25.98 15-25.98h30z" opacity=".2"/><path fill="none" stroke="#06C" d="m570 363.73-15 25.98h-30l-15-25.98 15-25.98h30z" opacity=".2"/><path fill="none" stroke="#06C" d="m615 389.71-15 25.98h-30l-15-25.98 15-25.98h30z" opacity=".2"/><path fill="none" stroke="#06C" d="m660 363.73-15 25.98h-30l-15-25.98 15-25.98h30z" opacity=".2"/><path fill="none" stroke="#06C" d="m705 389.71-15 25.98h-30l-15-25.98 15-25.98h30z" opacity=".2"/><path fill="none" stroke="#06C" d="m750 363.73-15 25.98h-30l-15-25.98 15-25.98h30z" opacity=".2"/><path fill="none" stroke="#06C" d="m795 389.71-15 25.98h-30l-15-25.98 15-25.98h30zm-810 51.96-15 25.98h-30l-15-25.98 15-25.98h30z" opacity=".2"/><path fill="none" stroke="#06C" d="m30 415.69-15 25.98h-30l-15-25.98 15-25.98h30z" opacity=".2"/><path fill="none" stroke="#06C" d="m75 441.67-15 25.98H30l-15-25.98 15-25.98h30z" opacity=".2"/><path fill="none" stroke="#06C" d="m120 415.69-15 25.98H75l-15-25.98 15-25.98h30z" opacity=".2"/><path fill="none" stroke="#06C" d="m165 441.67-15 25.98h-30l-15-25.98 15-25.98h30z" opacity=".2"/><path fill="none" stroke="#06C" d="m210 415.69-15 25.98h-30l-15-25.98 15-25.98h30z" opacity=".2"/><path fill="none" stroke="#06C" d="m255 441.67-15 25.98h-30l-15-25.98 15-25.98h30z" opacity=".2"/><path fill="none" stroke="#06C" d="m300 415.69-15 25.98h-30l-15-25.98 15-25.98h30z" opacity=".2"/><path fill="none" stroke="#06C" d="m345 441.67-15 25.98h-30l-15-25.98 15-25.98h30z" opacity=".2"/><path fill="none" stroke="#06C" d="m390 415.69-15 25.98h-30l-15-25.98 15-25.98h30z" opacity=".2"/><path fill="none" stroke="#06C" d="m435 441.67-15 25.98h-30l-15-25.98 15-25.98h30z" opacity=".2"/><path fill="none" stroke="#06C" d="m480 415.69-15 25.98h-30l-15-25.98 15-25.98h30z" opacity=".2"/><path fill="none" stroke="#06C" d="m525 441.67-15 25.98h-30l-15-25.98 15-25.98h30z" opacity=".2"/><path fill="none" stroke="#06C" d="m570 415.69-15 25.98h-30l-15-25.98 15-25.98h30z" opacity=".2"/><path fill="none" stroke="#06C" d="m615 441.67-15 25.98h-30l-15-25.98 15-25.98h30z" opacity=".2"/><path fill="none" stroke="#06C" d="m660 415.69-15 25.98h-30l-15-25.98 15-25.98h30z" opacity=".2"/><path fill="none" stroke="#06C" d="m705 441.67-15 25.98h-30l-15-25.98 15-25.98h30z" opacity=".2"/><path fill="none" stroke="#06C" d="m750 415.69-15 25.98h-30l-15-25.98 15-25.98h30z" opacity=".2"/><path fill="none" stroke="#06C" d="m795 441.67-15 25.98h-30l-15-25.98 15-25.98h30zm-810 51.96-15 25.99h-30l-15-25.99 15-25.98h30z" opacity=".2"/><path fill="none" stroke="#06C" d="m30 467.65-15 25.98h-30l-15-25.98 15-25.98h30z" opacity=".2"/><path fill="none" stroke="#06C" d="m75 493.63-15 25.99H30l-15-25.99 15-25.98h30z" opacity=".2"/><path fill="none" stroke="#06C" d="m120 467.65-15 25.98H75l-15-25.98 15-25.98h30z" opacity=".2"/><path fill="none" stroke="#06C" d="m165 493.63-15 25.99h-30l-15-25.99 15-25.98h30z" opacity=".2"/><path fill="none" stroke="#06C" d="m210 467.65-15 25.98h-30l-15-25.98 15-25.98h30z" opacity=".2"/><path fill="none" stroke="#06C" d="m255 493.63-15 25.99h-30l-15-25.99 15-25.98h30z" opacity=".2"/><path fill="none" stroke="#06C" d="m300 467.65-15 25.98h-30l-15-25.98 15-25.98h30z" opacity=".2"/><path fill="none" stroke="#06C" d="m345 493.63-15 25.99h-30l-15-25.99 15-25.98h30z" opacity=".2"/><path fill="none" stroke="#06C" d="m390 467.65-15 25.98h-30l-15-25.98 15-25.98h30z" opacity=".2"/><path fill="none" stroke="#06C" d="m435 493.63-15 25.99h-30l-15-25.99 15-25.98h30z" opacity=".2"/><path fill="none" stroke="#06C" d="m480 467.65-15 25.98h-30l-15-25.98 15-25.98h30z" opacity=".2"/><path fill="none" stroke="#06C" d="m525 493.63-15 25.99h-30l-15-25.99 15-25.98h30z" opacity=".2"/><path fill="none" stroke="#06C" d="m570 467.65-15 25.98h-30l-15-25.98 15-25.98h30z" opacity=".2"/><path fill="none" stroke="#06C" d="m615 493.63-15 25.99h-30l-15-25.99 15-25.98h30z" opacity=".2"/><path fill="none" stroke="#06C" d="m660 467.65-15 25.98h-30l-15-25.98 15-25.98h30z" opacity=".2"/><path fill="none" stroke="#06C" d="m705 493.63-15 25.99h-30l-15-25.99 15-25.98h30z" opacity=".2"/><path fill="none" stroke="#06C" d="m750 467.65-15 25.98h-30l-15-25.98 15-25.98h30z" opacity=".2"/><path fill="none" stroke="#06C" d="m795 493.63-15 25.99h-30l-15-25.99 15-25.98h30zM-15 545.6l-15 25.98h-30l-15-25.98 15-25.98h30z" opacity=".2"/><path fill="none" stroke="#06C" d="M30 519.62 15 545.6h-30l-15-25.98 15-25.99h30z" opacity=".2"/><path fill="none" stroke="#06C" d="m75 545.6-15 25.98H30L15 545.6l15-25.98h30z" opacity=".2"/><path fill="none" stroke="#06C" d="m120 519.62-15 25.98H75l-15-25.98 15-25.99h30z" opacity=".2"/><path fill="none" stroke="#06C" d="m165 545.6-15 25.98h-30l-15-25.98 15-25.98h30z" opacity=".2"/><path fill="none" stroke="#06C" d="m210 519.62-15 25.98h-30l-15-25.98 15-25.99h30z" opacity=".2"/><path fill="none" stroke="#06C" d="m255 545.6-15 25.98h-30l-15-25.98 15-25.98h30z" opacity=".2"/><path fill="none" stroke="#06C" d="m300 519.62-15 25.98h-30l-15-25.98 15-25.99h30z" opacity=".2"/><path fill="none" stroke="#06C" d="m345 545.6-15 25.98h-30l-15-25.98 15-25.98h30z" opacity=".2"/><path fill="none" stroke="#06C" d="m390 519.62-15 25.98h-30l-15-25.98 15-25.99h30z" opacity=".2"/><path fill="none" stroke="#06C" d="m435 545.6-15 25.98h-30l-15-25.98 15-25.98h30z" opacity=".2"/><path fill="none" stroke="#06C" d="m480 519.62-15 25.98h-30l-15-25.98 15-25.99h30z" opacity=".2"/><path fill="none" stroke="#06C" d="m525 545.6-15 25.98h-30l-15-25.98 15-25.98h30z" opacity=".2"/><path fill="none" stroke="#06C" d="m570 519.62-15 25.98h-30l-15-25.98 15-25.99h30z" opacity=".2"/><path fill="none" stroke="#06C" d="m615 545.6-15 25.98h-30l-15-25.98 15-25.98h30z" opacity=".2"/><path fill="none" stroke="#06C" d="m660 519.62-15 25.98h-30l-15-25.98 15-25.99h30z" opacity=".2"/><path fill="none" stroke="#06C" d="m705 545.6-15 25.98h-30l-15-25.98 15-25.98h30z" opacity=".2"/><path fill="none" stroke="#06C" d="m750 519.62-15 25.98h-30l-15-25.98 15-25.99h30z" opacity=".2"/><path fill="none" stroke="#06C" d="m795 545.6-15 25.98h-30l-15-25.98 15-25.98h30zm-810 51.96-15 25.98h-30l-15-25.98 15-25.98h30z" opacity=".2"/><path fill="none" stroke="#06C" d="m30 571.58-15 25.98h-30l-15-25.98 15-25.98h30z" opacity=".2"/><path fill="none" stroke="#06C" d="m75 597.56-15 25.98H30l-15-25.98 15-25.98h30z" opacity=".2"/><path fill="none" stroke="#06C" d="m120 571.58-15 25.98H75l-15-25.98 15-25.98h30z" opacity=".2"/><path fill="none" stroke="#06C" d="m165 597.56-15 25.98h-30l-15-25.98 15-25.98h30z" opacity=".2"/><path fill="none" stroke="#06C" d="m210 571.58-15 25.98h-30l-15-25.98 15-25.98h30z" opacity=".2"/><path fill="none" stroke="#06C" d="m255 597.56-15 25.98h-30l-15-25.98 15-25.98h30z" opacity=".2"/><path fill="none" stroke="#06C" d="m300 571.58-15 25.98h-30l-15-25.98 15-25.98h30z" opacity=".2"/><path fill="none" stroke="#06C" d="m345 597.56-15 25.98h-30l-15-25.98 15-25.98h30z" opacity=".2"/><path fill="none" stroke="#06C" d="m390 571.58-15 25.98h-30l-15-25.98 15-25.98h30z" opacity=".2"/><path fill="none" stroke="#06C" d="m435 597.56-15 25.98h-30l-15-25.98 15-25.98h30z" opacity=".2"/><path fill="none" stroke="#06C" d="m480 571.58-15 25.98h-30l-15-25.98 15-25.98h30z" opacity=".2"/><path fill="none" stroke="#06C" d="m525 597.56-15 25.98h-30l-15-25.98 15-25.98h30z" opacity=".2"/><path fill="none" stroke="#06C" d="m570 571.58-15 25.98h-30l-15-25.98 15-25.98h30z" opacity=".2"/><path fill="none" stroke="#06C" d="m615 597.56-15 25.98h-30l-15-25.98 15-25.98h30z" opacity=".2"/><path fill="none" stroke="#06C" d="m660 571.58-15 25.98h-30l-15-25.98 15-25.98h30z" opacity=".2"/><path fill="none" stroke="#06C" d="m705 597.56-15 25.98h-30l-15-25.98 15-25.98h30z" opacity=".2"/><path fill="none" stroke="#06C" d="m750 571.58-15 25.98h-30l-15-25.98 15-25.98h30z" opacity=".2"/><path fill="none" stroke="#06C" d="m795 597.56-15 25.98h-30l-15-25.98 15-25.98h30zm-810 51.96-15 25.98h-30l-15-25.98 15-25.98h30z" opacity=".2"/><path fill="none" stroke="#06C" d="m30 623.54-15 25.98h-30l-15-25.98 15-25.98h30z" opacity=".2"/><path fill="none" stroke="#06C" d="M75 649.52 60 675.5H30l-15-25.98 15-25.98h30z" opacity=".2"/><path fill="none" stroke="#06C" d="m120 623.54-15 25.98H75l-15-25.98 15-25.98h30z" opacity=".2"/><path fill="none" stroke="#06C" d="m165 649.52-15 25.98h-30l-15-25.98 15-25.98h30z" opacity=".2"/><path fill="none" stroke="#06C" d="m210 623.54-15 25.98h-30l-15-25.98 15-25.98h30z" opacity=".2"/><path fill="none" stroke="#06C" d="m255 649.52-15 25.98h-30l-15-25.98 15-25.98h30z" opacity=".2"/><path fill="none" stroke="#06C" d="m300 623.54-15 25.98h-30l-15-25.98 15-25.98h30z" opacity=".2"/><path fill="none" stroke="#06C" d="m345 649.52-15 25.98h-30l-15-25.98 15-25.98h30z" opacity=".2"/><path fill="none" stroke="#06C" d="m390 623.54-15 25.98h-30l-15-25.98 15-25.98h30z" opacity=".2"/><path fill="none" stroke="#06C" d="m435 649.52-15 25.98h-30l-15-25.98 15-25.98h30z" opacity=".2"/><path fill="none" stroke="#06C" d="m480 623.54-15 25.98h-30l-15-25.98 15-25.98h30z" opacity=".2"/><path fill="none" stroke="#06C" d="m525 649.52-15 25.98h-30l-15-25.98 15-25.98h30z" opacity=".2"/><path fill="none" stroke="#06C" d="m570 623.54-15 25.98h-30l-15-25.98 15-25.98h30z" opacity=".2"/><path fill="none" stroke="#06C" d="m615 649.52-15 25.98h-30l-15-25.98 15-25.98h30z" opacity=".2"/><path fill="none" stroke="#06C" d="m660 623.54-15 25.98h-30l-15-25.98 15-25.98h30z" opacity=".2"/><path fill="none" stroke="#06C" d="m705 649.52-15 25.98h-30l-15-25.98 15-25.98h30z" opacity=".2"/><path fill="none" stroke="#06C" d="m750 623.54-15 25.98h-30l-15-25.98 15-25.98h30z" opacity=".2"/><path fill="none" stroke="#06C" d="m795 649.52-15 25.98h-30l-15-25.98 15-25.98h30zm-810 51.96-15 25.98h-30l-15-25.98 15-25.98h30z" opacity=".2"/><path fill="none" stroke="#06C" d="m30 675.5-15 25.98h-30l-15-25.98 15-25.98h30z" opacity=".2"/><path fill="none" stroke="#06C" d="m75 701.48-15 25.98H30l-15-25.98 15-25.98h30z" opacity=".2"/><path fill="none" stroke="#06C" d="m120 675.5-15 25.98H75L60 675.5l15-25.98h30z" opacity=".2"/><path fill="none" stroke="#06C" d="m165 701.48-15 25.98h-30l-15-25.98 15-25.98h30z" opacity=".2"/><path fill="none" stroke="#06C" d="m210 675.5-15 25.98h-30l-15-25.98 15-25.98h30z" opacity=".2"/><path fill="none" stroke="#06C" d="m255 701.48-15 25.98h-30l-15-25.98 15-25.98h30z" opacity=".2"/><path fill="none" stroke="#06C" d="m300 675.5-15 25.98h-30l-15-25.98 15-25.98h30z" opacity=".2"/><path fill="none" stroke="#06C" d="m345 701.48-15 25.98h-30l-15-25.98 15-25.98h30z" opacity=".2"/><path fill="none" stroke="#06C" d="m390 675.5-15 25.98h-30l-15-25.98 15-25.98h30z" opacity=".2"/><path fill="none" stroke="#06C" d="m435 701.48-15 25.98h-30l-15-25.98 15-25.98h30z" opacity=".2"/><path fill="none" stroke="#06C" d="m480 675.5-15 25.98h-30l-15-25.98 15-25.98h30z" opacity=".2"/><path fill="none" stroke="#06C" d="m525 701.48-15 25.98h-30l-15-25.98 15-25.98h30z" opacity=".2"/><path fill="none" stroke="#06C" d="m570 675.5-15 25.98h-30l-15-25.98 15-25.98h30z" opacity=".2"/><path fill="none" stroke="#06C" d="m615 701.48-15 25.98h-30l-15-25.98 15-25.98h30z" opacity=".2"/><path fill="none" stroke="#06C" d="m660 675.5-15 25.98h-30l-15-25.98 15-25.98h30z" opacity=".2"/><path fill="none" stroke="#06C" d="m705 701.48-15 25.98h-30l-15-25.98 15-25.98h30z" opacity=".2"/><path fill="none" stroke="#06C" d="m750 675.5-15 25.98h-30l-15-25.98 15-25.98h30z" opacity=".2"/><path fill="none" stroke="#06C" d="m795 701.48-15 25.98h-30l-15-25.98 15-25.98h30zm-810 51.96-15 25.98h-30l-15-25.98 15-25.98h30z" opacity=".2"/><path fill="none" stroke="#06C" d="m30 727.46-15 25.98h-30l-15-25.98 15-25.98h30z" opacity=".2"/><path fill="none" stroke="#06C" d="m75 753.44-15 25.98H30l-15-25.98 15-25.98h30z" opacity=".2"/><path fill="none" stroke="#06C" d="m120 727.46-15 25.98H75l-15-25.98 15-25.98h30z" opacity=".2"/><path fill="none" stroke="#06C" d="m165 753.44-15 25.98h-30l-15-25.98 15-25.98h30z" opacity=".2"/><path fill="none" stroke="#06C" d="m210 727.46-15 25.98h-30l-15-25.98 15-25.98h30z" opacity=".2"/><path fill="none" stroke="#06C" d="m255 753.44-15 25.98h-30l-15-25.98 15-25.98h30z" opacity=".2"/><path fill="none" stroke="#06C" d="m300 727.46-15 25.98h-30l-15-25.98 15-25.98h30z" opacity=".2"/><path fill="none" stroke="#06C" d="m345 753.44-15 25.98h-30l-15-25.98 15-25.98h30z" opacity=".2"/><path fill="none" stroke="#06C" d="m390 727.46-15 25.98h-30l-15-25.98 15-25.98h30z" opacity=".2"/><path fill="none" stroke="#06C" d="m435 753.44-15 25.98h-30l-15-25.98 15-25.98h30z" opacity=".2"/><path fill="none" stroke="#06C" d="m480 727.46-15 25.98h-30l-15-25.98 15-25.98h30z" opacity=".2"/><path fill="none" stroke="#06C" d="m525 753.44-15 25.98h-30l-15-25.98 15-25.98h30z" opacity=".2"/><path fill="none" stroke="#06C" d="m570 727.46-15 25.98h-30l-15-25.98 15-25.98h30z" opacity=".2"/><path fill="none" stroke="#06C" d="m615 753.44-15 25.98h-30l-15-25.98 15-25.98h30z" opacity=".2"/><path fill="none" stroke="#06C" d="m660 727.46-15 25.98h-30l-15-25.98 15-25.98h30z" opacity=".2"/><path fill="none" stroke="#06C" d="m705 753.44-15 25.98h-30l-15-25.98 15-25.98h30z" opacity=".2"/><path fill="none" stroke="#06C" d="m750 727.46-15 25.98h-30l-15-25.98 15-25.98h30z" opacity=".2"/><path fill="none" stroke="#06C" d="m795 753.44-15 25.98h-30l-15-25.98 15-25.98h30zM-15 805.4l-15 25.98h-30l-15-25.98 15-25.98h30z" opacity=".2"/><path fill="none" stroke="#06C" d="M30 779.42 15 805.4h-30l-15-25.98 15-25.98h30z" opacity=".2"/><path fill="none" stroke="#06C" d="m75 805.4-15 25.98H30L15 805.4l15-25.98h30z" opacity=".2"/><path fill="none" stroke="#06C" d="m120 779.42-15 25.98H75l-15-25.98 15-25.98h30z" opacity=".2"/><path fill="none" stroke="#06C" d="m165 805.4-15 25.98h-30l-15-25.98 15-25.98h30z" opacity=".2"/><path fill="none" stroke="#06C" d="m210 779.42-15 25.98h-30l-15-25.98 15-25.98h30z" opacity=".2"/><path fill="none" stroke="#06C" d="m255 805.4-15 25.98h-30l-15-25.98 15-25.98h30z" opacity=".2"/><path fill="none" stroke="#06C" d="m300 779.42-15 25.98h-30l-15-25.98 15-25.98h30z" opacity=".2"/><path fill="none" stroke="#06C" d="m345 805.4-15 25.98h-30l-15-25.98 15-25.98h30z" opacity=".2"/><path fill="none" stroke="#06C" d="m390 779.42-15 25.98h-30l-15-25.98 15-25.98h30z" opacity=".2"/><path fill="none" stroke="#06C" d="m435 805.4-15 25.98h-30l-15-25.98 15-25.98h30z" opacity=".2"/><path fill="none" stroke="#06C" d="m480 779.42-15 25.98h-30l-15-25.98 15-25.98h30z" opacity=".2"/><path fill="none" stroke="#06C" d="m525 805.4-15 25.98h-30l-15-25.98 15-25.98h30z" opacity=".2"/><path fill="none" stroke="#06C" d="m570 779.42-15 25.98h-30l-15-25.98 15-25.98h30z" opacity=".2"/><path fill="none" stroke="#06C" d="m615 805.4-15 25.98h-30l-15-25.98 15-25.98h30z" opacity=".2"/><path fill="none" stroke="#06C" d="m660 779.42-15 25.98h-30l-15-25.98 15-25.98h30z" opacity=".2"/><path fill="none" stroke="#06C" d="m705 805.4-15 25.98h-30l-15-25.98 15-25.98h30z" opacity=".2"/><path fill="none" stroke="#06C" d="m750 779.42-15 25.98h-30l-15-25.98 15-25.98h30z" opacity=".2"/><path fill="none" stroke="#06C" d="m795 805.4-15 25.98h-30l-15-25.98 15-25.98h30zm-810 51.97-15 25.98h-30l-15-25.98 15-25.99h30z" opacity=".2"/><path fill="none" stroke="#06C" d="m30 831.38-15 25.99h-30l-15-25.99 15-25.98h30z" opacity=".2"/><path fill="none" stroke="#06C" d="m75 857.37-15 25.98H30l-15-25.98 15-25.99h30z" opacity=".2"/><path fill="none" stroke="#06C" d="m120 831.38-15 25.99H75l-15-25.99 15-25.98h30z" opacity=".2"/><path fill="none" stroke="#06C" d="m165 857.37-15 25.98h-30l-15-25.98 15-25.99h30z" opacity=".2"/><path fill="none" stroke="#06C" d="m210 831.38-15 25.99h-30l-15-25.99 15-25.98h30z" opacity=".2"/><path fill="none" stroke="#06C" d="m255 857.37-15 25.98h-30l-15-25.98 15-25.99h30z" opacity=".2"/><path fill="none" stroke="#06C" d="m300 831.38-15 25.99h-30l-15-25.99 15-25.98h30z" opacity=".2"/><path fill="none" stroke="#06C" d="m345 857.37-15 25.98h-30l-15-25.98 15-25.99h30z" opacity=".2"/><path fill="none" stroke="#06C" d="m390 831.38-15 25.99h-30l-15-25.99 15-25.98h30z" opacity=".2"/><path fill="none" stroke="#06C" d="m435 857.37-15 25.98h-30l-15-25.98 15-25.99h30z" opacity=".2"/><path fill="none" stroke="#06C" d="m480 831.38-15 25.99h-30l-15-25.99 15-25.98h30z" opacity=".2"/><path fill="none" stroke="#06C" d="m525 857.37-15 25.98h-30l-15-25.98 15-25.99h30z" opacity=".2"/><path fill="none" stroke="#06C" d="m570 831.38-15 25.99h-30l-15-25.99 15-25.98h30z" opacity=".2"/><path fill="none" stroke="#06C" d="m615 857.37-15 25.98h-30l-15-25.98 15-25.99h30z" opacity=".2"/><path fill="none" stroke="#06C" d="m660 831.38-15 25.99h-30l-15-25.99 15-25.98h30z" opacity=".2"/><path fill="none" stroke="#06C" d="m705 857.37-15 25.98h-30l-15-25.98 15-25.99h30z" opacity=".2"/><path fill="none" stroke="#06C" d="m750 831.38-15 25.99h-30l-15-25.99 15-25.98h30z" opacity=".2"/><path fill="none" stroke="#06C" d="m795 857.37-15 25.98h-30l-15-25.98 15-25.99h30zm-810 51.96-15 25.98h-30l-15-25.98 15-25.98h30z" opacity=".2"/><path fill="none" stroke="#06C" d="m30 883.35-15 25.98h-30l-15-25.98 15-25.98h30z" opacity=".2"/><path fill="none" stroke="#06C" d="m75 909.33-15 25.98H30l-15-25.98 15-25.98h30z" opacity=".2"/><path fill="none" stroke="#06C" d="m120 883.35-15 25.98H75l-15-25.98 15-25.98h30z" opacity=".2"/><path fill="none" stroke="#06C" d="m165 909.33-15 25.98h-30l-15-25.98 15-25.98h30z" opacity=".2"/><path fill="none" stroke="#06C" d="m210 883.35-15 25.98h-30l-15-25.98 15-25.98h30z" opacity=".2"/><path fill="none" stroke="#06C" d="m255 909.33-15 25.98h-30l-15-25.98 15-25.98h30z" opacity=".2"/><path fill="none" stroke="#06C" d="m300 883.35-15 25.98h-30l-15-25.98 15-25.98h30z" opacity=".2"/><path fill="none" stroke="#06C" d="m345 909.33-15 25.98h-30l-15-25.98 15-25.98h30z" opacity=".2"/><path fill="none" stroke="#06C" d="m390 883.35-15 25.98h-30l-15-25.98 15-25.98h30z" opacity=".2"/><path fill="none" stroke="#06C" d="m435 909.33-15 25.98h-30l-15-25.98 15-25.98h30z" opacity=".2"/><path fill="none" stroke="#06C" d="m480 883.35-15 25.98h-30l-15-25.98 15-25.98h30z" opacity=".2"/><path fill="none" stroke="#06C" d="m525 909.33-15 25.98h-30l-15-25.98 15-25.98h30z" opacity=".2"/><path fill="none" stroke="#06C" d="m570 883.35-15 25.98h-30l-15-25.98 15-25.98h30z" opacity=".2"/><path fill="none" stroke="#06C" d="m615 909.33-15 25.98h-30l-15-25.98 15-25.98h30z" opacity=".2"/><path fill="none" stroke="#06C" d="m660 883.35-15 25.98h-30l-15-25.98 15-25.98h30z" opacity=".2"/><path fill="none" stroke="#06C" d="m705 909.33-15 25.98h-30l-15-25.98 15-25.98h30z" opacity=".2"/><path fill="none" stroke="#06C" d="m750 883.35-15 25.98h-30l-15-25.98 15-25.98h30z" opacity=".2"/><path fill="none" stroke="#06C" d="m795 909.33-15 25.98h-30l-15-25.98 15-25.98h30z" opacity=".2"/></svg>