<svg xmlns="http://www.w3.org/2000/svg" width="1920" height="1080" baseProfile="full"><rect width="100%" height="100%" fill="#001"/><path stroke="#FFF" d="M0 1h1920M0 4h1920M0 7h1920M0 10h1920M0 13h1920M0 16h1920M0 19h1920M0 22h1920M0 25h1920M0 28h1920M0 31h1920M0 34h1920M0 37h1920M0 40h1920M0 43h1920M0 46h1920M0 49h1920M0 52h1920M0 55h1920M0 58h1920M0 61h1920M0 64h1920M0 67h1920M0 70h1920M0 73h1920M0 76h1920M0 79h1920M0 82h1920M0 85h1920M0 88h1920M0 91h1920M0 94h1920M0 97h1920M0 100h1920M0 103h1920M0 106h1920M0 109h1920M0 112h1920M0 115h1920M0 118h1920M0 121h1920M0 124h1920M0 127h1920M0 130h1920M0 133h1920M0 136h1920M0 139h1920M0 142h1920M0 145h1920M0 148h1920M0 151h1920M0 154h1920M0 157h1920M0 160h1920M0 163h1920M0 166h1920M0 169h1920M0 172h1920M0 175h1920M0 178h1920M0 181h1920M0 184h1920M0 187h1920M0 190h1920M0 193h1920M0 196h1920M0 199h1920M0 202h1920M0 205h1920M0 208h1920M0 211h1920M0 214h1920M0 217h1920M0 220h1920M0 223h1920M0 226h1920M0 229h1920M0 232h1920M0 235h1920M0 238h1920M0 241h1920M0 244h1920M0 247h1920M0 250h1920M0 253h1920M0 256h1920M0 259h1920M0 262h1920M0 265h1920M0 268h1920M0 271h1920M0 274h1920M0 277h1920M0 280h1920M0 283h1920M0 286h1920M0 289h1920M0 292h1920M0 295h1920M0 298h1920M0 301h1920M0 304h1920M0 307h1920M0 310h1920M0 313h1920M0 316h1920M0 319h1920M0 322h1920M0 325h1920M0 328h1920M0 331h1920M0 334h1920M0 337h1920M0 340h1920M0 343h1920M0 346h1920M0 349h1920M0 352h1920M0 355h1920M0 358h1920M0 361h1920M0 364h1920M0 367h1920M0 370h1920M0 373h1920M0 376h1920M0 379h1920M0 382h1920M0 385h1920M0 388h1920M0 391h1920M0 394h1920M0 397h1920M0 400h1920M0 403h1920M0 406h1920M0 409h1920M0 412h1920M0 415h1920M0 418h1920M0 421h1920M0 424h1920M0 427h1920M0 430h1920M0 433h1920M0 436h1920M0 439h1920M0 442h1920M0 445h1920M0 448h1920M0 451h1920M0 454h1920M0 457h1920M0 460h1920M0 463h1920M0 466h1920M0 469h1920M0 472h1920M0 475h1920M0 478h1920M0 481h1920M0 484h1920M0 487h1920M0 490h1920M0 493h1920M0 496h1920M0 499h1920M0 502h1920M0 505h1920M0 508h1920M0 511h1920M0 514h1920M0 517h1920M0 520h1920M0 523h1920M0 526h1920M0 529h1920M0 532h1920M0 535h1920M0 538h1920M0 541h1920M0 544h1920M0 547h1920M0 550h1920M0 553h1920M0 556h1920M0 559h1920M0 562h1920M0 565h1920M0 568h1920M0 571h1920M0 574h1920M0 577h1920M0 580h1920M0 583h1920M0 586h1920M0 589h1920M0 592h1920M0 595h1920M0 598h1920M0 601h1920M0 604h1920M0 607h1920M0 610h1920M0 613h1920M0 616h1920M0 619h1920M0 622h1920M0 625h1920M0 628h1920M0 631h1920M0 634h1920M0 637h1920M0 640h1920M0 643h1920M0 646h1920M0 649h1920M0 652h1920M0 655h1920M0 658h1920M0 661h1920M0 664h1920M0 667h1920M0 670h1920M0 673h1920M0 676h1920M0 679h1920M0 682h1920M0 685h1920M0 688h1920M0 691h1920M0 694h1920M0 697h1920M0 700h1920M0 703h1920M0 706h1920M0 709h1920M0 712h1920M0 715h1920M0 718h1920M0 721h1920M0 724h1920M0 727h1920M0 730h1920M0 733h1920M0 736h1920M0 739h1920M0 742h1920M0 745h1920M0 748h1920M0 751h1920M0 754h1920M0 757h1920M0 760h1920M0 763h1920M0 766h1920M0 769h1920M0 772h1920M0 775h1920M0 778h1920M0 781h1920M0 784h1920M0 787h1920M0 790h1920M0 793h1920M0 796h1920M0 799h1920M0 802h1920M0 805h1920M0 808h1920M0 811h1920M0 814h1920M0 817h1920M0 820h1920M0 823h1920M0 826h1920M0 829h1920M0 832h1920M0 835h1920M0 838h1920M0 841h1920M0 844h1920M0 847h1920M0 850h1920M0 853h1920M0 856h1920M0 859h1920M0 862h1920M0 865h1920M0 868h1920M0 871h1920M0 874h1920M0 877h1920M0 880h1920M0 883h1920M0 886h1920M0 889h1920M0 892h1920M0 895h1920M0 898h1920M0 901h1920M0 904h1920M0 907h1920M0 910h1920M0 913h1920M0 916h1920M0 919h1920M0 922h1920M0 925h1920M0 928h1920M0 931h1920M0 934h1920M0 937h1920M0 940h1920M0 943h1920M0 946h1920M0 949h1920M0 952h1920M0 955h1920M0 958h1920M0 961h1920M0 964h1920M0 967h1920M0 970h1920M0 973h1920M0 976h1920M0 979h1920M0 982h1920M0 985h1920M0 988h1920M0 991h1920M0 994h1920M0 997h1920M0 1000h1920M0 1003h1920M0 1006h1920M0 1009h1920M0 1012h1920M0 1015h1920M0 1018h1920M0 1021h1920M0 1024h1920M0 1027h1920M0 1030h1920M0 1033h1920M0 1036h1920M0 1039h1920M0 1042h1920M0 1045h1920M0 1048h1920M0 1051h1920M0 1054h1920M0 1057h1920M0 1060h1920M0 1063h1920M0 1066h1920M0 1069h1920M0 1072h1920M0 1075h1920M0 1078h1920" opacity=".05"/><path fill="#06C" fill-opacity=".5" stroke="#06C" d="M1720 160a40 40 0 0 1 0 80 30 40 0 0 0 0-80"/><circle cx="1477" cy="886" r=".76" fill="#FFF" opacity=".42"/><circle cx="1201" cy="168" r=".73" fill="#FFF" opacity=".4"/><circle cx="1212" cy="836" r="1.7" fill="#FFF" opacity=".87"/><circle cx="1656" cy="700" r=".5" fill="#FFF" opacity=".41"/><circle cx="1723" cy="141" r="1.29" fill="#FFF" opacity=".42"/><circle cx="346" cy="119" r="1.56" fill="#FFF" opacity=".99"/><circle cx="251" cy="444" r="1.76" fill="#FFF" opacity=".99"/><circle cx="547" cy="416" r=".69" fill="#FFF" opacity=".66"/><circle cx="1655" cy="611" r="1.2" fill="#FFF" opacity=".74"/><circle cx="1633" cy="156" r="1.91" fill="#FFF" opacity=".76"/><circle cx="211" cy="897" r=".78" fill="#FFF" opacity=".87"/><circle cx="1761" cy="645" r="1.4" fill="#FFF" opacity=".48"/><circle cx="1091" cy="801" r="1.66" fill="#FFF" opacity=".93"/><circle cx="471" cy="117" r=".7" fill="#FFF" opacity=".36"/><circle cx="686" cy="244" r="1.13" fill="#FFF" opacity=".91"/><circle cx="1397" cy="630" r=".81" fill="#FFF" opacity=".87"/><circle cx="1542" cy="695" r="1.49" fill="#FFF" opacity=".53"/><circle cx="995" cy="890" r="1.14" fill="#FFF" opacity=".51"/><circle cx="1902" cy="383" r="1.9" fill="#FFF" opacity=".82"/><circle cx="1529" cy="678" r=".95" fill="#FFF" opacity=".6"/><circle cx="290" cy="90" r=".92" fill="#FFF" opacity=".4"/><circle cx="843" cy="560" r=".59" fill="#FFF" opacity=".53"/><circle cx="658" cy="886" r=".58" fill="#FFF" opacity=".41"/><circle cx="1303" cy="359" r="1" fill="#FFF" opacity=".7"/><circle cx="350" cy="274" r=".71" fill="#FFF" opacity=".31"/><circle cx="1292" cy="866" r="1.8" fill="#FFF" opacity=".5"/><circle cx="332" cy="379" r=".97" fill="#FFF" opacity=".71"/><circle cx="1214" cy="860" r="1.28" fill="#FFF" opacity=".52"/><circle cx="359" cy="922" r="1.24" fill="#FFF" opacity=".87"/><circle cx="1826" cy="384" r=".57" fill="#FFF" opacity=".51"/><circle cx="1877" cy="113" r="1.36" fill="#FFF" opacity=".87"/><circle cx="853" cy="165" r="1.22" fill="#FFF" opacity=".86"/><circle cx="499" cy="452" r="1.85" fill="#FFF" opacity=".88"/><circle cx="313" cy="50" r="1.02" fill="#FFF" opacity=".75"/><circle cx="816" cy="65" r=".9" fill="#FFF" opacity=".46"/><circle cx="936" cy="651" r="1.01" fill="#FFF" opacity=".58"/><circle cx="1905" cy="86" r="1.03" fill="#FFF" opacity=".88"/><circle cx="1429" cy="528" r="1.61" fill="#FFF" opacity=".9"/><circle cx="312" cy="586" r=".99" fill="#FFF" opacity=".58"/><circle cx="324" cy="556" r=".85" fill="#FFF" opacity=".33"/><circle cx="695" cy="451" r="1.74" fill="#FFF" opacity=".99"/><circle cx="271" cy="335" r=".79" fill="#FFF" opacity=".39"/><circle cx="936" cy="1065" r="1.08" fill="#FFF" opacity=".77"/><circle cx="1386" cy="1052" r="1.3" fill="#FFF" opacity=".79"/><circle cx="656" cy="73" r="1.78" fill="#FFF" opacity=".55"/><circle cx="130" cy="331" r="1.94" fill="#FFF" opacity=".56"/><circle cx="1743" cy="632" r=".68" fill="#FFF" opacity=".66"/><circle cx="320" cy="219" r="1.2" fill="#FFF" opacity=".88"/><circle cx="601" cy="1064" r=".53" fill="#FFF" opacity=".47"/><circle cx="1545" cy="656" r="1.94" fill="#FFF" opacity=".88"/><circle cx="296" cy="652" r="1" fill="#FFF" opacity=".93"/><circle cx="1735" cy="235" r=".76" fill="#FFF" opacity=".41"/><circle cx="87" cy="633" r=".68" fill="#FFF" opacity=".8"/><circle cx="944" cy="100" r=".97" fill="#FFF" opacity=".35"/><circle cx="547" cy="85" r="1.14" fill="#FFF" opacity=".63"/><circle cx="894" cy="775" r="1.91" fill="#FFF" opacity=".4"/><circle cx="761" cy="176" r=".68" fill="#FFF" opacity=".68"/><circle cx="1115" cy="827" r=".77" fill="#FFF" opacity=".65"/><circle cx="1749" cy="1052" r=".52" fill="#FFF" opacity=".77"/><circle cx="1080" cy="449" r="1.53" fill="#FFF" opacity=".78"/><circle cx="399" cy="349" r="1.32" fill="#FFF" opacity=".98"/><circle cx="1491" cy="118" r="1.13" fill="#FFF" opacity=".89"/><circle cx="1470" cy="369" r="1.46" fill="#FFF" opacity=".84"/><circle cx="1751" cy="358" r="1.09" fill="#FFF" opacity=".78"/><circle cx="260" cy="549" r="1.22" fill="#FFF" opacity=".72"/><circle cx="1197" cy="845" r="1.84" fill="#FFF" opacity=".37"/><circle cx="1741" cy="602" r=".89" fill="#FFF" opacity=".71"/><circle cx="300" cy="954" r="1.34" fill="#FFF" opacity=".96"/><circle cx="1534" cy="207" r="1.16" fill="#FFF" opacity=".92"/><circle cx="1196" cy="153" r="1.72" fill="#FFF" opacity=".86"/><circle cx="1805" cy="642" r=".55" fill="#FFF" opacity=".51"/><circle cx="82" cy="999" r=".69" fill="#FFF" opacity=".58"/><circle cx="1691" cy="926" r=".83" fill="#FFF" opacity=".8"/><circle cx="128" cy="582" r="1.89" fill="#FFF" opacity=".47"/><circle cx="1899" cy="62" r="1.61" fill="#FFF" opacity=".81"/><circle cx="1541" cy="696" r="1.29" fill="#FFF" opacity=".34"/><circle cx="1363" cy="610" r=".61" fill="#FFF" opacity=".77"/><circle cx="1803" cy="811" r=".88" fill="#FFF" opacity=".85"/><circle cx="381" cy="858" r="1.48" fill="#FFF" opacity=".88"/><circle cx="1264" cy="35" r=".73" fill="#FFF" opacity=".86"/><circle cx="747" cy="771" r="1.38" fill="#FFF" opacity=".74"/><circle cx="996" cy="64" r=".56" fill="#FFF"/><circle cx="1738" cy="360" r="1.31" fill="#FFF" opacity=".92"/><circle cx="927" cy="209" r=".98" fill="#FFF" opacity=".42"/><circle cx="337" cy="605" r="1.62" fill="#FFF" opacity=".35"/><circle cx="653" cy="285" r="1.18" fill="#FFF" opacity=".94"/><circle cx="1501" cy="965" r="1.98" fill="#FFF" opacity=".35"/><circle cx="978" cy="805" r="1.49" fill="#FFF" opacity=".53"/><circle cx="1913" cy="377" r="1.22" fill="#FFF" opacity=".62"/><circle cx="917" cy="1024" r=".6" fill="#FFF" opacity=".54"/><circle cx="45" cy="404" r="1.18" fill="#FFF" opacity=".5"/><circle cx="1797" cy="419" r="1.12" fill="#FFF" opacity=".71"/><circle cx="136" cy="888" r=".62" fill="#FFF" opacity=".54"/><circle cx="1062" cy="835" r="1" fill="#FFF" opacity=".5"/><circle cx="1246" cy="721" r="1.12" fill="#FFF" opacity=".65"/><circle cx="736" cy="789" r="1.96" fill="#FFF" opacity=".35"/><circle cx="656" cy="734" r="1.49" fill="#FFF" opacity=".45"/><circle cx="1599" cy="618" r="1.33" fill="#FFF" opacity=".53"/><circle cx="45" cy="277" r="1.22" fill="#FFF" opacity=".78"/><circle cx="1849" cy="737" r="1.3" fill="#FFF" opacity=".86"/><text x="960" y="50" fill="#06C" font-family="monospace" font-size="30" font-weight="bold" text-anchor="middle">NIGHT PHASE</text><path fill="none" stroke="#024" d="m425.5 671-10.75 18.62h-21.5L382.5 671l10.75-18.62h21.5z" opacity=".15"/><path fill="none" stroke="#036" d="m779.5 560-8.25 14.29h-16.5L746.5 560l8.25-14.29h16.5z" opacity=".15"/><path fill="none" stroke="#024" d="M320 400h54v27h-54z" opacity=".1"/><path stroke="#024" d="M320 413.5h54" opacity=".1"/><path fill="none" stroke="#036" d="M208 540h93v46.5h-93z" opacity=".16"/><path stroke="#036" d="M208 563.25h93" opacity=".16"/><path fill="none" stroke="#06C" d="m1072 587-18 31.18h-36L1000 587l18-31.18h36z" opacity=".19"/><path fill="none" stroke="#036" d="m1415.5 277-20.75 35.94h-41.5L1332.5 277l20.75-35.94h41.5z" opacity=".17"/><path fill="none" stroke="#06C" d="M1468 230h68v34h-68z" opacity=".19"/><path stroke="#06C" d="M1468 247h68" opacity=".19"/><path fill="none" stroke="#024" d="m1362.5 872-11.25 19.49h-22.5L1317.5 872l11.25-19.49h22.5z" opacity=".11"/><path fill="none" stroke="#024" d="M954 182h51v25.5h-51z" opacity=".19"/><path stroke="#024" d="M954 194.75h51" opacity=".19"/><path fill="none" stroke="#036" d="M595 671h87v43.5h-87z" opacity=".16"/><path stroke="#036" d="M595 692.75h87" opacity=".16"/><path fill="none" stroke="#036" d="m990.5 1018-19.25 33.34h-38.5L913.5 1018l19.25-33.34h38.5z" opacity=".18"/><path fill="none" stroke="#06C" d="M1538 352h94v47h-94z" opacity=".16"/><path stroke="#06C" d="M1538 375.5h94" opacity=".16"/><path fill="none" stroke="#024" d="m134 810-13.5 23.38h-27L80 810l13.5-23.38h27z" opacity=".18"/><path fill="none" stroke="#036" d="M1309 297h66v33h-66z" opacity=".12"/><path stroke="#036" d="M1309 313.5h66" opacity=".12"/><path fill="none" stroke="#036" d="M1778 457h91v45.5h-91z" opacity=".17"/><path stroke="#036" d="M1778 479.75h91" opacity=".17"/></svg>