<svg xmlns="http://www.w3.org/2000/svg" width="400" height="500" baseProfile="full"><path stroke="#0F0" stroke-width="2" d="M20 0h360l20 20v460l-20 20H20L0 480V20Z"/><path fill="#0F0" fill-opacity=".2" stroke="#0F0" d="M20 0h360l20 20H0Z"/><text x="200" y="15" fill="#FFF" font-family="monospace" font-size="14" font-weight="bold" text-anchor="middle">COMMUNICATIONS</text><path fill="none" stroke="#0F0" d="M5 25h20v20H5Zm370 0h20v20h-20ZM5 455h20v20H5Zm370 0h20v20h-20Z"/><path stroke="#000" d="M0 21h400M0 24h400M0 27h400M0 30h400M0 33h400M0 36h400M0 39h400M0 42h400M0 45h400M0 48h400M0 51h400M0 54h400M0 57h400M0 60h400M0 63h400M0 66h400M0 69h400M0 72h400M0 75h400M0 78h400M0 81h400M0 84h400M0 87h400M0 90h400M0 93h400M0 96h400M0 99h400M0 102h400M0 105h400M0 108h400M0 111h400M0 114h400M0 117h400M0 120h400M0 123h400M0 126h400M0 129h400M0 132h400M0 135h400M0 138h400M0 141h400M0 144h400M0 147h400M0 150h400M0 153h400M0 156h400M0 159h400M0 162h400M0 165h400M0 168h400M0 171h400M0 174h400M0 177h400M0 180h400M0 183h400M0 186h400M0 189h400M0 192h400M0 195h400M0 198h400M0 201h400M0 204h400M0 207h400M0 210h400M0 213h400M0 216h400M0 219h400M0 222h400M0 225h400M0 228h400M0 231h400M0 234h400M0 237h400M0 240h400M0 243h400M0 246h400M0 249h400M0 252h400M0 255h400M0 258h400M0 261h400M0 264h400M0 267h400M0 270h400M0 273h400M0 276h400M0 279h400M0 282h400M0 285h400M0 288h400M0 291h400M0 294h400M0 297h400M0 300h400M0 303h400M0 306h400M0 309h400M0 312h400M0 315h400M0 318h400M0 321h400M0 324h400M0 327h400M0 330h400M0 333h400M0 336h400M0 339h400M0 342h400M0 345h400M0 348h400M0 351h400M0 354h400M0 357h400M0 360h400M0 363h400M0 366h400M0 369h400M0 372h400M0 375h400M0 378h400M0 381h400M0 384h400M0 387h400M0 390h400M0 393h400M0 396h400M0 399h400M0 402h400M0 405h400M0 408h400M0 411h400M0 414h400M0 417h400M0 420h400M0 423h400M0 426h400M0 429h400M0 432h400M0 435h400M0 438h400M0 441h400M0 444h400M0 447h400M0 450h400M0 453h400M0 456h400M0 459h400M0 462h400M0 465h400M0 468h400M0 471h400M0 474h400M0 477h400M0 480h400M0 483h400M0 486h400M0 489h400M0 492h400M0 495h400M0 498h400" opacity=".2"/><path stroke="#0F0" stroke-width=".5" d="M0 20v480M40 20v480M80 20v480m40-480v480m40-480v480m40-480v480m40-480v480m40-480v480m40-480v480m40-480v480M0 20h400M0 60h400M0 100h400M0 140h400M0 180h400M0 220h400M0 260h400M0 300h400M0 340h400M0 380h400M0 420h400M0 460h400" opacity=".1"/></svg>