<svg xmlns="http://www.w3.org/2000/svg" width="500" height="500" baseProfile="full"><rect width="100%" height="100%" fill="none"/><path stroke="#0F0" d="M0 0v500M50 0v500M100 0v500M150 0v500M200 0v500M250 0v500M300 0v500M350 0v500M400 0v500M450 0v500M500 0v500M0 0h500M0 50h500M0 100h500M0 150h500M0 200h500M0 250h500M0 300h500M0 350h500M0 400h500M0 450h500M0 500h500" opacity=".2"/><path stroke="#0F0" d="M0 0v500M100 0v500M200 0v500M300 0v500M400 0v500M500 0v500M0 0h500M0 100h500M0 200h500M0 300h500M0 400h500M0 500h500" opacity=".4"/><circle cx="399.5" cy="412.5" r="22.33" fill="none" stroke="#0F0" opacity=".3"/><path stroke="#0F0" d="M399.5 390.17v44.66m-22.33-22.33h44.66" opacity=".3"/><path fill="none" stroke="#0F0" d="M161 73h84v84h-84z" opacity=".3"/><path stroke="#0F0" d="m161 73 84 84" opacity=".3"/><circle cx="269" cy="367" r="21.33" fill="none" stroke="#0F0" opacity=".3"/><path stroke="#0F0" d="M269 345.67v42.66M247.67 367h42.66" opacity=".3"/><path fill="none" stroke="#0F0" d="M378 100h61v61h-61z" opacity=".3"/><path stroke="#0F0" d="m378 100 61 61" opacity=".3"/><circle cx="276" cy="417" r="24" fill="none" stroke="#0F0" opacity=".3"/><path stroke="#0F0" d="M276 393v48m-24-24h48" opacity=".3"/><circle cx="350.5" cy="205.5" r="17.67" fill="none" stroke="#0F0" opacity=".3"/><path stroke="#0F0" d="M350.5 187.83v35.34m-17.67-17.67h35.34" opacity=".3"/><path fill="none" stroke="#0F0" d="M55 189h56v56H55z" opacity=".3"/><path stroke="#0F0" d="m55 189 56 56" opacity=".3"/><path fill="none" stroke="#0F0" d="M75 172h67v67H75z" opacity=".3"/><path stroke="#0F0" d="m75 172 67 67" opacity=".3"/><path fill="none" stroke="#0F0" d="M82 195h76v76H82z" opacity=".3"/><path stroke="#0F0" d="m82 195 76 76" opacity=".3"/><path fill="none" stroke="#0F0" d="M87 193h72v72H87z" opacity=".3"/><path stroke="#0F0" d="m87 193 72 72" opacity=".3"/></svg>