<svg xmlns="http://www.w3.org/2000/svg" width="1920" height="1080" baseProfile="full"><rect width="100%" height="100%"/><path stroke="#FFF" d="M0 1h1920M0 4h1920M0 7h1920M0 10h1920M0 13h1920M0 16h1920M0 19h1920M0 22h1920M0 25h1920M0 28h1920M0 31h1920M0 34h1920M0 37h1920M0 40h1920M0 43h1920M0 46h1920M0 49h1920M0 52h1920M0 55h1920M0 58h1920M0 61h1920M0 64h1920M0 67h1920M0 70h1920M0 73h1920M0 76h1920M0 79h1920M0 82h1920M0 85h1920M0 88h1920M0 91h1920M0 94h1920M0 97h1920M0 100h1920M0 103h1920M0 106h1920M0 109h1920M0 112h1920M0 115h1920M0 118h1920M0 121h1920M0 124h1920M0 127h1920M0 130h1920M0 133h1920M0 136h1920M0 139h1920M0 142h1920M0 145h1920M0 148h1920M0 151h1920M0 154h1920M0 157h1920M0 160h1920M0 163h1920M0 166h1920M0 169h1920M0 172h1920M0 175h1920M0 178h1920M0 181h1920M0 184h1920M0 187h1920M0 190h1920M0 193h1920M0 196h1920M0 199h1920M0 202h1920M0 205h1920M0 208h1920M0 211h1920M0 214h1920M0 217h1920M0 220h1920M0 223h1920M0 226h1920M0 229h1920M0 232h1920M0 235h1920M0 238h1920M0 241h1920M0 244h1920M0 247h1920M0 250h1920M0 253h1920M0 256h1920M0 259h1920M0 262h1920M0 265h1920M0 268h1920M0 271h1920M0 274h1920M0 277h1920M0 280h1920M0 283h1920M0 286h1920M0 289h1920M0 292h1920M0 295h1920M0 298h1920M0 301h1920M0 304h1920M0 307h1920M0 310h1920M0 313h1920M0 316h1920M0 319h1920M0 322h1920M0 325h1920M0 328h1920M0 331h1920M0 334h1920M0 337h1920M0 340h1920M0 343h1920M0 346h1920M0 349h1920M0 352h1920M0 355h1920M0 358h1920M0 361h1920M0 364h1920M0 367h1920M0 370h1920M0 373h1920M0 376h1920M0 379h1920M0 382h1920M0 385h1920M0 388h1920M0 391h1920M0 394h1920M0 397h1920M0 400h1920M0 403h1920M0 406h1920M0 409h1920M0 412h1920M0 415h1920M0 418h1920M0 421h1920M0 424h1920M0 427h1920M0 430h1920M0 433h1920M0 436h1920M0 439h1920M0 442h1920M0 445h1920M0 448h1920M0 451h1920M0 454h1920M0 457h1920M0 460h1920M0 463h1920M0 466h1920M0 469h1920M0 472h1920M0 475h1920M0 478h1920M0 481h1920M0 484h1920M0 487h1920M0 490h1920M0 493h1920M0 496h1920M0 499h1920M0 502h1920M0 505h1920M0 508h1920M0 511h1920M0 514h1920M0 517h1920M0 520h1920M0 523h1920M0 526h1920M0 529h1920M0 532h1920M0 535h1920M0 538h1920M0 541h1920M0 544h1920M0 547h1920M0 550h1920M0 553h1920M0 556h1920M0 559h1920M0 562h1920M0 565h1920M0 568h1920M0 571h1920M0 574h1920M0 577h1920M0 580h1920M0 583h1920M0 586h1920M0 589h1920M0 592h1920M0 595h1920M0 598h1920M0 601h1920M0 604h1920M0 607h1920M0 610h1920M0 613h1920M0 616h1920M0 619h1920M0 622h1920M0 625h1920M0 628h1920M0 631h1920M0 634h1920M0 637h1920M0 640h1920M0 643h1920M0 646h1920M0 649h1920M0 652h1920M0 655h1920M0 658h1920M0 661h1920M0 664h1920M0 667h1920M0 670h1920M0 673h1920M0 676h1920M0 679h1920M0 682h1920M0 685h1920M0 688h1920M0 691h1920M0 694h1920M0 697h1920M0 700h1920M0 703h1920M0 706h1920M0 709h1920M0 712h1920M0 715h1920M0 718h1920M0 721h1920M0 724h1920M0 727h1920M0 730h1920M0 733h1920M0 736h1920M0 739h1920M0 742h1920M0 745h1920M0 748h1920M0 751h1920M0 754h1920M0 757h1920M0 760h1920M0 763h1920M0 766h1920M0 769h1920M0 772h1920M0 775h1920M0 778h1920M0 781h1920M0 784h1920M0 787h1920M0 790h1920M0 793h1920M0 796h1920M0 799h1920M0 802h1920M0 805h1920M0 808h1920M0 811h1920M0 814h1920M0 817h1920M0 820h1920M0 823h1920M0 826h1920M0 829h1920M0 832h1920M0 835h1920M0 838h1920M0 841h1920M0 844h1920M0 847h1920M0 850h1920M0 853h1920M0 856h1920M0 859h1920M0 862h1920M0 865h1920M0 868h1920M0 871h1920M0 874h1920M0 877h1920M0 880h1920M0 883h1920M0 886h1920M0 889h1920M0 892h1920M0 895h1920M0 898h1920M0 901h1920M0 904h1920M0 907h1920M0 910h1920M0 913h1920M0 916h1920M0 919h1920M0 922h1920M0 925h1920M0 928h1920M0 931h1920M0 934h1920M0 937h1920M0 940h1920M0 943h1920M0 946h1920M0 949h1920M0 952h1920M0 955h1920M0 958h1920M0 961h1920M0 964h1920M0 967h1920M0 970h1920M0 973h1920M0 976h1920M0 979h1920M0 982h1920M0 985h1920M0 988h1920M0 991h1920M0 994h1920M0 997h1920M0 1000h1920M0 1003h1920M0 1006h1920M0 1009h1920M0 1012h1920M0 1015h1920M0 1018h1920M0 1021h1920M0 1024h1920M0 1027h1920M0 1030h1920M0 1033h1920M0 1036h1920M0 1039h1920M0 1042h1920M0 1045h1920M0 1048h1920M0 1051h1920M0 1054h1920M0 1057h1920M0 1060h1920M0 1063h1920M0 1066h1920M0 1069h1920M0 1072h1920M0 1075h1920M0 1078h1920" opacity=".05"/><path fill="none" stroke="#0F0" d="m90 150-20 34.64H30L10 150l20-34.64h40zm0 200-20 34.64H30L10 350l20-34.64h40zm0 600-20 34.64H30L10 950l20-34.64h40zm0 100-20 34.64H30L10 1050l20-34.64h40zm100-800-20 34.64h-40L110 250l20-34.64h40zm0 600-20 34.64h-40L110 850l20-34.64h40zm0 200-20 34.64h-40L110 1050l20-34.64h40zm100-800-20 34.64h-40L210 250l20-34.64h40zm0 100-20 34.64h-40L210 350l20-34.64h40zm0 700-20 34.64h-40L210 1050l20-34.64h40zm100-900-20 34.64h-40L310 150l20-34.64h40zm0 300-20 34.64h-40L310 450l20-34.64h40zm0 600-20 34.64h-40L310 1050l20-34.64h40zm100-500-20 34.64h-40L410 550l20-34.64h40zm0 400-20 34.64h-40L410 950l20-34.64h40zm100-700-20 34.64h-40L510 250l20-34.64h40zm100 0-20 34.64h-40L610 250l20-34.64h40zm0 100-20 34.64h-40L610 350l20-34.64h40zm100 600-20 34.64h-40L710 950l20-34.64h40zm100-800-20 34.64h-40L810 150l20-34.64h40zm0 200-20 34.64h-40L810 350l20-34.64h40zm0 300-20 34.64h-40L810 650l20-34.64h40zm0 100-20 34.64h-40L810 750l20-34.64h40zm0 200-20 34.64h-40L810 950l20-34.64h40zm0 100-20 34.64h-40L810 1050l20-34.64h40zM990 50l-20 34.64h-40L910 50l20-34.64h40zm0 400-20 34.64h-40L910 450l20-34.64h40zm0 600-20 34.64h-40L910 1050l20-34.64h40zm100-900-20 34.64h-40L1010 150l20-34.64h40zm0 300-20 34.64h-40L1010 450l20-34.64h40zm0 200-20 34.64h-40L1010 650l20-34.64h40zm0 400-20 34.64h-40l-20-34.64 20-34.64h40zm100-900-20 34.64h-40L1110 150l20-34.64h40zm0 100-20 34.64h-40L1110 250l20-34.64h40zm0 100-20 34.64h-40L1110 350l20-34.64h40zm0 100-20 34.64h-40L1110 450l20-34.64h40zm0 500-20 34.64h-40L1110 950l20-34.64h40zm100-900-20 34.64h-40L1210 50l20-34.64h40zm0 200-20 34.64h-40L1210 250l20-34.64h40zm0 200-20 34.64h-40L1210 450l20-34.64h40zm0 100-20 34.64h-40L1210 550l20-34.64h40zm0 200-20 34.64h-40L1210 750l20-34.64h40zm100-500-20 34.64h-40L1310 250l20-34.64h40zm0 200-20 34.64h-40L1310 450l20-34.64h40zm0 100-20 34.64h-40L1310 550l20-34.64h40zm0 400-20 34.64h-40L1310 950l20-34.64h40zm0 100-20 34.64h-40l-20-34.64 20-34.64h40zM1490 50l-20 34.64h-40L1410 50l20-34.64h40zm0 300-20 34.64h-40L1410 350l20-34.64h40zm0 100-20 34.64h-40L1410 450l20-34.64h40zm0 100-20 34.64h-40L1410 550l20-34.64h40zm0 300-20 34.64h-40L1410 850l20-34.64h40zm100 100-20 34.64h-40L1510 950l20-34.64h40zm100-300-20 34.64h-40L1610 650l20-34.64h40zm100-600-20 34.64h-40L1710 50l20-34.64h40zm0 300-20 34.64h-40L1710 350l20-34.64h40zm0 100-20 34.64h-40L1710 450l20-34.64h40zm0 300-20 34.64h-40L1710 750l20-34.64h40zm100-700-20 34.64h-40L1810 50l20-34.64h40zm0 100-20 34.64h-40L1810 150l20-34.64h40zm0 600-20 34.64h-40L1810 750l20-34.64h40zm0 100-20 34.64h-40L1810 850l20-34.64h40zm100-700-20 34.64h-40L1910 150l20-34.64h40zm0 300-20 34.64h-40L1910 450l20-34.64h40zm0 100-20 34.64h-40L1910 550l20-34.64h40zm0 200-20 34.64h-40L1910 750l20-34.64h40z" opacity=".2"/><path fill="#0F0" d="M0 0h200v5H0z"/><path fill="#0F0" d="M0 0h5v200H0z"/><text x="20" y="30" fill="#0F0" font-family="monospace" font-size="16">NERV-MAGI</text><text x="20" y="50" fill="#0F0" font-family="monospace" font-size="12">SYSTEM ACTIVE</text><path fill="#06C" d="M1720 0h200v5h-200z"/><path fill="#06C" d="M1915 0h5v200h-5z"/><text x="1740" y="30" fill="#06C" font-family="monospace" font-size="16">SECURITY LEVEL 3</text><path fill="#0F0" d="M0 1075h200v5H0z"/><path fill="#0F0" d="M0 880h5v200H0z"/><path fill="#06C" d="M1720 1075h200v5h-200z"/><path fill="#06C" d="M1915 880h5v200h-5z"/><text x="873" y="696" fill="#F90" font-family="monospace" font-size="10" opacity=".16">23583D63D0E7C517699F6</text><text x="873" y="711" fill="#F90" font-family="monospace" font-size="10" opacity=".16">6B7D1F51564286F8CFE37</text><text x="873" y="726" fill="#F90" font-family="monospace" font-size="10" opacity=".16">1FA93671823B666444650</text><text x="873" y="741" fill="#F90" font-family="monospace" font-size="10" opacity=".16">724A83C78C13551E8D953</text><text x="873" y="756" fill="#F90" font-family="monospace" font-size="10" opacity=".16">04CA02C88C55535678DA0</text><text x="155" y="416" fill="#06C" font-family="monospace" font-size="10" opacity=".26">BD8381914822B0F691D4</text><text x="155" y="431" fill="#06C" font-family="monospace" font-size="10" opacity=".26">B7F720EE71DCF9EDCE59</text><text x="155" y="446" fill="#06C" font-family="monospace" font-size="10" opacity=".26">3A8DD9653B236CEA1043</text><text x="155" y="461" fill="#06C" font-family="monospace" font-size="10" opacity=".26">3D5BEF4443CDF3DA0119</text><text x="155" y="476" fill="#06C" font-family="monospace" font-size="10" opacity=".26">E62C1A34A4882ECF2202</text><text x="786" y="117" fill="#F90" font-family="monospace" font-size="10" opacity=".3">59AA5FCB25E999D625770299DA0</text><text x="786" y="132" fill="#F90" font-family="monospace" font-size="10" opacity=".3">2CD6845ABCBE6FF97F77E1A5AD1</text><text x="786" y="147" fill="#F90" font-family="monospace" font-size="10" opacity=".3">BA5D7BAF1408F76B3703479A5AE</text><text x="786" y="162" fill="#F90" font-family="monospace" font-size="10" opacity=".3">870DB2F84C4061DDF136CB2F08B</text><text x="786" y="177" fill="#F90" font-family="monospace" font-size="10" opacity=".3">4D0E1E67C189B9DD136C823B669</text><text x="1429" y="751" fill="#06C" font-family="monospace" font-size="10" opacity=".14">5191A3D43BB04441959652065A</text><text x="1429" y="766" fill="#06C" font-family="monospace" font-size="10" opacity=".14">F7F985586457BD87223F73EED2</text><text x="1429" y="781" fill="#06C" font-family="monospace" font-size="10" opacity=".14">82235129C909F851B7150D2531</text><text x="1429" y="796" fill="#06C" font-family="monospace" font-size="10" opacity=".14">FE042C4E2D950B4BCCAD24D098</text><text x="1429" y="811" fill="#06C" font-family="monospace" font-size="10" opacity=".14">C634F57AB91382CDC7E38D8D47</text><text x="1868" y="809" fill="#F90" font-family="monospace" font-size="10" opacity=".24">B68FA09211489</text><text x="1868" y="824" fill="#F90" font-family="monospace" font-size="10" opacity=".24">42EEADED9EF54</text><text x="1868" y="839" fill="#F90" font-family="monospace" font-size="10" opacity=".24">0E2386095FF81</text><text x="1868" y="854" fill="#F90" font-family="monospace" font-size="10" opacity=".24">1C948C61AD68E</text><text x="1868" y="869" fill="#F90" font-family="monospace" font-size="10" opacity=".24">D460B8D85D991</text><text x="800" y="843" fill="#F90" font-family="monospace" font-size="10" opacity=".18">BD901EBD8DE67E736E7906B2F0F70</text><text x="800" y="858" fill="#F90" font-family="monospace" font-size="10" opacity=".18">B205CC579943E1AF41062AB36FC27</text><text x="800" y="873" fill="#F90" font-family="monospace" font-size="10" opacity=".18">E5BCC1A87869E78ADAE09A8BE1D13</text><text x="800" y="888" fill="#F90" font-family="monospace" font-size="10" opacity=".18">0ED5AD53946402FCAC7849D22B43A</text><text x="800" y="903" fill="#F90" font-family="monospace" font-size="10" opacity=".18">68B9EFA5763FA55C4E6DD41C3919B</text><text x="708" y="917" fill="#F90" font-family="monospace" font-size="10" opacity=".27">6E9CB9A59E699493ACEAE0FE3199</text><text x="708" y="932" fill="#F90" font-family="monospace" font-size="10" opacity=".27">AC9667F5891B88CB9F892690BACA</text><text x="708" y="947" fill="#F90" font-family="monospace" font-size="10" opacity=".27">74190506CF44380431628BAA6D5D</text><text x="708" y="962" fill="#F90" font-family="monospace" font-size="10" opacity=".27">88BB0B1DEE35BF2ED4FEC67D1CDB</text><text x="708" y="977" fill="#F90" font-family="monospace" font-size="10" opacity=".27">0759B8F969695FD455A4D62837D6</text><text x="1272" y="734" fill="#0F0" font-family="monospace" font-size="10" opacity=".16">F269769C6004CBE9A168BA22</text><text x="1272" y="749" fill="#0F0" font-family="monospace" font-size="10" opacity=".16">395975A60A38CCCAB6ADF5A1</text><text x="1272" y="764" fill="#0F0" font-family="monospace" font-size="10" opacity=".16">A16D324B63B8CF13A24E2A7C</text><text x="1272" y="779" fill="#0F0" font-family="monospace" font-size="10" opacity=".16">AE56D7779799B2706C959EE0</text><text x="1272" y="794" fill="#0F0" font-family="monospace" font-size="10" opacity=".16">F5B4AE61A5788C790993A621</text><text x="700" y="616" fill="#0F0" font-family="monospace" font-size="10" opacity=".29">E9375C383EA9F4FBA53B534EBFC</text><text x="700" y="631" fill="#0F0" font-family="monospace" font-size="10" opacity=".29">C9E29A460FB1F0BC6CA6490E0A1</text><text x="700" y="646" fill="#0F0" font-family="monospace" font-size="10" opacity=".29">975266A1633D80B7A0A6C2F2F51</text><text x="700" y="661" fill="#0F0" font-family="monospace" font-size="10" opacity=".29">BBAC63EC2F51A57F9D9F8874C21</text><text x="700" y="676" fill="#0F0" font-family="monospace" font-size="10" opacity=".29">AF6E5CDDFBE01BC46BF65237127</text><text x="504" y="101" fill="#F90" font-family="monospace" font-size="10" opacity=".14">2EC7D1145A532B004D68</text><text x="504" y="116" fill="#F90" font-family="monospace" font-size="10" opacity=".14">3E004BF50161B036C18A</text><text x="504" y="131" fill="#F90" font-family="monospace" font-size="10" opacity=".14">BC839A2BFD4FCCCA0CC4</text><text x="504" y="146" fill="#F90" font-family="monospace" font-size="10" opacity=".14">1B4B48B67A2060C50C4A</text><text x="504" y="161" fill="#F90" font-family="monospace" font-size="10" opacity=".14">FBAE1B165DC60DE2D10A</text><path fill="none" stroke="#0F0" d="M1050 146h244v15h-244z"/><path fill="#0F0" fill-opacity=".3" d="M1050 146h87v15h-87z"/><path fill="none" stroke="#06C" d="M1091 1003h266v15h-266z"/><path fill="#06C" fill-opacity=".3" d="M1091 1003h193v15h-193z"/><path fill="none" stroke="#F90" d="M1305 681h280v15h-280z"/><path fill="#F90" fill-opacity=".3" d="M1305 681h98v15h-98z"/><path fill="none" stroke="#F90" d="M474 61h243v15H474z"/><path fill="#F90" fill-opacity=".3" d="M474 61h229v15H474z"/><path fill="none" stroke="#F90" d="M134 130h254v15H134z"/><path fill="#F90" fill-opacity=".3" d="M134 130h212v15H134z"/></svg>