<svg xmlns="http://www.w3.org/2000/svg" width="600" height="400" baseProfile="full"><path stroke="#0F0" stroke-width="2" d="M20 0h560l20 20v360l-20 20H20L0 380V20Z"/><path fill="#0F0" fill-opacity=".2" stroke="#0F0" d="M20 0h560l20 20H0Z"/><text x="300" y="15" fill="#FFF" font-family="monospace" font-size="14" font-weight="bold" text-anchor="middle">MAIN DISPLAY</text><path fill="none" stroke="#0F0" d="M5 25h20v20H5Zm570 0h20v20h-20ZM5 355h20v20H5Zm570 0h20v20h-20Z"/><path stroke="#000" d="M0 21h600M0 24h600M0 27h600M0 30h600M0 33h600M0 36h600M0 39h600M0 42h600M0 45h600M0 48h600M0 51h600M0 54h600M0 57h600M0 60h600M0 63h600M0 66h600M0 69h600M0 72h600M0 75h600M0 78h600M0 81h600M0 84h600M0 87h600M0 90h600M0 93h600M0 96h600M0 99h600M0 102h600M0 105h600M0 108h600M0 111h600M0 114h600M0 117h600M0 120h600M0 123h600M0 126h600M0 129h600M0 132h600M0 135h600M0 138h600M0 141h600M0 144h600M0 147h600M0 150h600M0 153h600M0 156h600M0 159h600M0 162h600M0 165h600M0 168h600M0 171h600M0 174h600M0 177h600M0 180h600M0 183h600M0 186h600M0 189h600M0 192h600M0 195h600M0 198h600M0 201h600M0 204h600M0 207h600M0 210h600M0 213h600M0 216h600M0 219h600M0 222h600M0 225h600M0 228h600M0 231h600M0 234h600M0 237h600M0 240h600M0 243h600M0 246h600M0 249h600M0 252h600M0 255h600M0 258h600M0 261h600M0 264h600M0 267h600M0 270h600M0 273h600M0 276h600M0 279h600M0 282h600M0 285h600M0 288h600M0 291h600M0 294h600M0 297h600M0 300h600M0 303h600M0 306h600M0 309h600M0 312h600M0 315h600M0 318h600M0 321h600M0 324h600M0 327h600M0 330h600M0 333h600M0 336h600M0 339h600M0 342h600M0 345h600M0 348h600M0 351h600M0 354h600M0 357h600M0 360h600M0 363h600M0 366h600M0 369h600M0 372h600M0 375h600M0 378h600M0 381h600M0 384h600M0 387h600M0 390h600M0 393h600M0 396h600M0 399h600" opacity=".2"/><path stroke="#0F0" stroke-width=".5" d="M0 20v380M40 20v380M80 20v380m40-380v380m40-380v380m40-380v380m40-380v380m40-380v380m40-380v380m40-380v380m40-380v380m40-380v380m40-380v380m40-380v380m40-380v380M0 20h600M0 60h600M0 100h600M0 140h600M0 180h600M0 220h600M0 260h600M0 300h600M0 340h600M0 380h600" opacity=".1"/></svg>