<svg xmlns="http://www.w3.org/2000/svg" width="350" height="150" baseProfile="full"><path stroke="#F90" stroke-width="2" d="M20 0h310l20 20v110l-20 20H20L0 130V20Z"/><path fill="#F90" fill-opacity=".2" stroke="#F90" d="M20 0h310l20 20H0Z"/><text x="175" y="15" fill="#FFF" font-family="monospace" font-size="14" font-weight="bold" text-anchor="middle">NOTIFICATION</text><path fill="none" stroke="#F90" d="M5 25h20v20H5Zm320 0h20v20h-20ZM5 105h20v20H5Zm320 0h20v20h-20Z"/><path stroke="#000" d="M0 21h350M0 24h350M0 27h350M0 30h350M0 33h350M0 36h350M0 39h350M0 42h350M0 45h350M0 48h350M0 51h350M0 54h350M0 57h350M0 60h350M0 63h350M0 66h350M0 69h350M0 72h350M0 75h350M0 78h350M0 81h350M0 84h350M0 87h350M0 90h350M0 93h350M0 96h350M0 99h350M0 102h350M0 105h350M0 108h350M0 111h350M0 114h350M0 117h350M0 120h350M0 123h350M0 126h350M0 129h350M0 132h350M0 135h350M0 138h350M0 141h350M0 144h350M0 147h350M0 150h350" opacity=".2"/><path stroke="#F90" stroke-width=".5" d="M0 20v130M40 20v130M80 20v130m40-130v130m40-130v130m40-130v130m40-130v130m40-130v130m40-130v130M0 20h350M0 60h350M0 100h350M0 140h350" opacity=".1"/></svg>