<svg xmlns="http://www.w3.org/2000/svg" width="300" height="400" baseProfile="full"><path stroke="#06C" stroke-width="2" d="M20 0h260l20 20v360l-20 20H20L0 380V20Z"/><path fill="#06C" fill-opacity=".2" stroke="#06C" d="M20 0h260l20 20H0Z"/><text x="150" y="15" fill="#FFF" font-family="monospace" font-size="14" font-weight="bold" text-anchor="middle">PLAYER STATUS</text><path fill="none" stroke="#06C" d="M5 25h20v20H5Zm270 0h20v20h-20ZM5 355h20v20H5Zm270 0h20v20h-20Z"/><path stroke="#000" d="M0 21h300M0 24h300M0 27h300M0 30h300M0 33h300M0 36h300M0 39h300M0 42h300M0 45h300M0 48h300M0 51h300M0 54h300M0 57h300M0 60h300M0 63h300M0 66h300M0 69h300M0 72h300M0 75h300M0 78h300M0 81h300M0 84h300M0 87h300M0 90h300M0 93h300M0 96h300M0 99h300M0 102h300M0 105h300M0 108h300M0 111h300M0 114h300M0 117h300M0 120h300M0 123h300M0 126h300M0 129h300M0 132h300M0 135h300M0 138h300M0 141h300M0 144h300M0 147h300M0 150h300M0 153h300M0 156h300M0 159h300M0 162h300M0 165h300M0 168h300M0 171h300M0 174h300M0 177h300M0 180h300M0 183h300M0 186h300M0 189h300M0 192h300M0 195h300M0 198h300M0 201h300M0 204h300M0 207h300M0 210h300M0 213h300M0 216h300M0 219h300M0 222h300M0 225h300M0 228h300M0 231h300M0 234h300M0 237h300M0 240h300M0 243h300M0 246h300M0 249h300M0 252h300M0 255h300M0 258h300M0 261h300M0 264h300M0 267h300M0 270h300M0 273h300M0 276h300M0 279h300M0 282h300M0 285h300M0 288h300M0 291h300M0 294h300M0 297h300M0 300h300M0 303h300M0 306h300M0 309h300M0 312h300M0 315h300M0 318h300M0 321h300M0 324h300M0 327h300M0 330h300M0 333h300M0 336h300M0 339h300M0 342h300M0 345h300M0 348h300M0 351h300M0 354h300M0 357h300M0 360h300M0 363h300M0 366h300M0 369h300M0 372h300M0 375h300M0 378h300M0 381h300M0 384h300M0 387h300M0 390h300M0 393h300M0 396h300M0 399h300" opacity=".2"/><path stroke="#06C" stroke-width=".5" d="M0 20v380M40 20v380M80 20v380m40-380v380m40-380v380m40-380v380m40-380v380m40-380v380M0 20h300M0 60h300M0 100h300M0 140h300M0 180h300M0 220h300M0 260h300M0 300h300M0 340h300M0 380h300" opacity=".1"/></svg>