<svg xmlns="http://www.w3.org/2000/svg" width="300" height="150" baseProfile="full"><path stroke="#F90" stroke-width="2" d="M20 0h260l20 20v110l-20 20H20L0 130V20Z"/><path fill="#F90" fill-opacity=".2" stroke="#F90" d="M20 0h260l20 20H0Z"/><text x="150" y="15" fill="#FFF" font-family="monospace" font-size="14" font-weight="bold" text-anchor="middle">STATUS</text><path fill="none" stroke="#F90" d="M5 25h20v20H5Zm270 0h20v20h-20ZM5 105h20v20H5Zm270 0h20v20h-20Z"/><path stroke="#000" d="M0 21h300M0 24h300M0 27h300M0 30h300M0 33h300M0 36h300M0 39h300M0 42h300M0 45h300M0 48h300M0 51h300M0 54h300M0 57h300M0 60h300M0 63h300M0 66h300M0 69h300M0 72h300M0 75h300M0 78h300M0 81h300M0 84h300M0 87h300M0 90h300M0 93h300M0 96h300M0 99h300M0 102h300M0 105h300M0 108h300M0 111h300M0 114h300M0 117h300M0 120h300M0 123h300M0 126h300M0 129h300M0 132h300M0 135h300M0 138h300M0 141h300M0 144h300M0 147h300M0 150h300" opacity=".2"/><path stroke="#F90" stroke-width=".5" d="M0 20v130M40 20v130M80 20v130m40-130v130m40-130v130m40-130v130m40-130v130m40-130v130M0 20h300M0 60h300M0 100h300M0 140h300" opacity=".1"/></svg>