<svg xmlns="http://www.w3.org/2000/svg" width="300" height="450" baseProfile="full"><rect width="100%" height="100%" rx="10" ry="10"/><path fill="none" stroke="red" stroke-width=".5" d="m-15-25 10 7.5v15L-15 5l-10-7.5v-15Zm0 30 10 7.5v15L-15 35l-10-7.5v-15Zm0 30 10 7.5v15L-15 65l-10-7.5v-15Zm0 30 10 7.5v15L-15 95l-10-7.5v-15Zm0 30 10 7.5v15l-10 7.5-10-7.5v-15Zm0 30 10 7.5v15l-10 7.5-10-7.5v-15Zm0 30 10 7.5v15l-10 7.5-10-7.5v-15Zm0 30 10 7.5v15l-10 7.5-10-7.5v-15Zm0 30 10 7.5v15l-10 7.5-10-7.5v-15Zm0 30 10 7.5v15l-10 7.5-10-7.5v-15Zm0 30 10 7.5v15l-10 7.5-10-7.5v-15Zm0 30 10 7.5v15l-10 7.5-10-7.5v-15Zm0 30 10 7.5v15l-10 7.5-10-7.5v-15Zm0 30 10 7.5v15l-10 7.5-10-7.5v-15Zm0 30 10 7.5v15l-10 7.5-10-7.5v-15Zm0 30 10 7.5v15l-10 7.5-10-7.5v-15Zm0 30 10 7.5v15l-10 7.5-10-7.5v-15ZM15-25l10 7.5v15L15 5 5-2.5v-15Zm0 30 10 7.5v15L15 35 5 27.5v-15Zm0 30 10 7.5v15L15 65 5 57.5v-15Zm0 30 10 7.5v15L15 95 5 87.5v-15Zm0 30 10 7.5v15L15 125l-10-7.5v-15Zm0 30 10 7.5v15L15 155l-10-7.5v-15Zm0 30 10 7.5v15L15 185l-10-7.5v-15Zm0 30 10 7.5v15L15 215l-10-7.5v-15Zm0 30 10 7.5v15L15 245l-10-7.5v-15Zm0 30 10 7.5v15L15 275l-10-7.5v-15Zm0 30 10 7.5v15L15 305l-10-7.5v-15Zm0 30 10 7.5v15L15 335l-10-7.5v-15Zm0 30 10 7.5v15L15 365l-10-7.5v-15Zm0 30 10 7.5v15L15 395l-10-7.5v-15Zm0 30 10 7.5v15L15 425l-10-7.5v-15Zm0 30 10 7.5v15L15 455l-10-7.5v-15Zm0 30 10 7.5v15L15 485l-10-7.5v-15ZM45-25l10 7.5v15L45 5 35-2.5v-15Zm0 30 10 7.5v15L45 35l-10-7.5v-15Zm0 30 10 7.5v15L45 65l-10-7.5v-15Zm0 30 10 7.5v15L45 95l-10-7.5v-15Zm0 30 10 7.5v15L45 125l-10-7.5v-15Zm0 30 10 7.5v15L45 155l-10-7.5v-15Zm0 30 10 7.5v15L45 185l-10-7.5v-15Zm0 30 10 7.5v15L45 215l-10-7.5v-15Zm0 30 10 7.5v15L45 245l-10-7.5v-15Zm0 30 10 7.5v15L45 275l-10-7.5v-15Zm0 30 10 7.5v15L45 305l-10-7.5v-15Zm0 30 10 7.5v15L45 335l-10-7.5v-15Zm0 30 10 7.5v15L45 365l-10-7.5v-15Zm0 30 10 7.5v15L45 395l-10-7.5v-15Zm0 30 10 7.5v15L45 425l-10-7.5v-15Zm0 30 10 7.5v15L45 455l-10-7.5v-15Zm0 30 10 7.5v15L45 485l-10-7.5v-15ZM75-25l10 7.5v15L75 5 65-2.5v-15Zm0 30 10 7.5v15L75 35l-10-7.5v-15Zm0 30 10 7.5v15L75 65l-10-7.5v-15Zm0 30 10 7.5v15L75 95l-10-7.5v-15Zm0 30 10 7.5v15L75 125l-10-7.5v-15Zm0 30 10 7.5v15L75 155l-10-7.5v-15Zm0 30 10 7.5v15L75 185l-10-7.5v-15Zm0 30 10 7.5v15L75 215l-10-7.5v-15Zm0 30 10 7.5v15L75 245l-10-7.5v-15Zm0 30 10 7.5v15L75 275l-10-7.5v-15Zm0 30 10 7.5v15L75 305l-10-7.5v-15Zm0 30 10 7.5v15L75 335l-10-7.5v-15Zm0 30 10 7.5v15L75 365l-10-7.5v-15Zm0 30 10 7.5v15L75 395l-10-7.5v-15Zm0 30 10 7.5v15L75 425l-10-7.5v-15Zm0 30 10 7.5v15L75 455l-10-7.5v-15Zm0 30 10 7.5v15L75 485l-10-7.5v-15Zm30-480 10 7.5v15L105 5 95-2.5v-15Zm0 30 10 7.5v15L105 35l-10-7.5v-15Zm0 30 10 7.5v15L105 65l-10-7.5v-15Zm0 30 10 7.5v15L105 95l-10-7.5v-15Zm0 30 10 7.5v15l-10 7.5-10-7.5v-15Zm0 30 10 7.5v15l-10 7.5-10-7.5v-15Zm0 30 10 7.5v15l-10 7.5-10-7.5v-15Zm0 30 10 7.5v15l-10 7.5-10-7.5v-15Zm0 30 10 7.5v15l-10 7.5-10-7.5v-15Zm0 30 10 7.5v15l-10 7.5-10-7.5v-15Zm0 30 10 7.5v15l-10 7.5-10-7.5v-15Zm0 30 10 7.5v15l-10 7.5-10-7.5v-15Zm0 30 10 7.5v15l-10 7.5-10-7.5v-15Zm0 30 10 7.5v15l-10 7.5-10-7.5v-15Zm0 30 10 7.5v15l-10 7.5-10-7.5v-15Zm0 30 10 7.5v15l-10 7.5-10-7.5v-15Zm0 30 10 7.5v15l-10 7.5-10-7.5v-15Zm30-480 10 7.5v15L135 5l-10-7.5v-15Zm0 30 10 7.5v15L135 35l-10-7.5v-15Zm0 30 10 7.5v15L135 65l-10-7.5v-15Zm0 30 10 7.5v15L135 95l-10-7.5v-15Zm0 30 10 7.5v15l-10 7.5-10-7.5v-15Zm0 30 10 7.5v15l-10 7.5-10-7.5v-15Zm0 30 10 7.5v15l-10 7.5-10-7.5v-15Zm0 30 10 7.5v15l-10 7.5-10-7.5v-15Zm0 30 10 7.5v15l-10 7.5-10-7.5v-15Zm0 30 10 7.5v15l-10 7.5-10-7.5v-15Zm0 30 10 7.5v15l-10 7.5-10-7.5v-15Zm0 30 10 7.5v15l-10 7.5-10-7.5v-15Zm0 30 10 7.5v15l-10 7.5-10-7.5v-15Zm0 30 10 7.5v15l-10 7.5-10-7.5v-15Zm0 30 10 7.5v15l-10 7.5-10-7.5v-15Zm0 30 10 7.5v15l-10 7.5-10-7.5v-15Zm0 30 10 7.5v15l-10 7.5-10-7.5v-15Zm30-480 10 7.5v15L165 5l-10-7.5v-15Zm0 30 10 7.5v15L165 35l-10-7.5v-15Zm0 30 10 7.5v15L165 65l-10-7.5v-15Zm0 30 10 7.5v15L165 95l-10-7.5v-15Zm0 30 10 7.5v15l-10 7.5-10-7.5v-15Zm0 30 10 7.5v15l-10 7.5-10-7.5v-15Zm0 30 10 7.5v15l-10 7.5-10-7.5v-15Zm0 30 10 7.5v15l-10 7.5-10-7.5v-15Zm0 30 10 7.5v15l-10 7.5-10-7.5v-15Zm0 30 10 7.5v15l-10 7.5-10-7.5v-15Zm0 30 10 7.5v15l-10 7.5-10-7.5v-15Zm0 30 10 7.5v15l-10 7.5-10-7.5v-15Zm0 30 10 7.5v15l-10 7.5-10-7.5v-15Zm0 30 10 7.5v15l-10 7.5-10-7.5v-15Zm0 30 10 7.5v15l-10 7.5-10-7.5v-15Zm0 30 10 7.5v15l-10 7.5-10-7.5v-15Zm0 30 10 7.5v15l-10 7.5-10-7.5v-15Zm30-480 10 7.5v15L195 5l-10-7.5v-15Zm0 30 10 7.5v15L195 35l-10-7.5v-15Zm0 30 10 7.5v15L195 65l-10-7.5v-15Zm0 30 10 7.5v15L195 95l-10-7.5v-15Zm0 30 10 7.5v15l-10 7.5-10-7.5v-15Zm0 30 10 7.5v15l-10 7.5-10-7.5v-15Zm0 30 10 7.5v15l-10 7.5-10-7.5v-15Zm0 30 10 7.5v15l-10 7.5-10-7.5v-15Zm0 30 10 7.5v15l-10 7.5-10-7.5v-15Zm0 30 10 7.5v15l-10 7.5-10-7.5v-15Zm0 30 10 7.5v15l-10 7.5-10-7.5v-15Zm0 30 10 7.5v15l-10 7.5-10-7.5v-15Zm0 30 10 7.5v15l-10 7.5-10-7.5v-15Zm0 30 10 7.5v15l-10 7.5-10-7.5v-15Zm0 30 10 7.5v15l-10 7.5-10-7.5v-15Zm0 30 10 7.5v15l-10 7.5-10-7.5v-15Zm0 30 10 7.5v15l-10 7.5-10-7.5v-15Zm30-480 10 7.5v15L225 5l-10-7.5v-15Zm0 30 10 7.5v15L225 35l-10-7.5v-15Zm0 30 10 7.5v15L225 65l-10-7.5v-15Zm0 30 10 7.5v15L225 95l-10-7.5v-15Zm0 30 10 7.5v15l-10 7.5-10-7.5v-15Zm0 30 10 7.5v15l-10 7.5-10-7.5v-15Zm0 30 10 7.5v15l-10 7.5-10-7.5v-15Zm0 30 10 7.5v15l-10 7.5-10-7.5v-15Zm0 30 10 7.5v15l-10 7.5-10-7.5v-15Zm0 30 10 7.5v15l-10 7.5-10-7.5v-15Zm0 30 10 7.5v15l-10 7.5-10-7.5v-15Zm0 30 10 7.5v15l-10 7.5-10-7.5v-15Zm0 30 10 7.5v15l-10 7.5-10-7.5v-15Zm0 30 10 7.5v15l-10 7.5-10-7.5v-15Zm0 30 10 7.5v15l-10 7.5-10-7.5v-15Zm0 30 10 7.5v15l-10 7.5-10-7.5v-15Zm0 30 10 7.5v15l-10 7.5-10-7.5v-15Zm30-480 10 7.5v15L255 5l-10-7.5v-15Zm0 30 10 7.5v15L255 35l-10-7.5v-15Zm0 30 10 7.5v15L255 65l-10-7.5v-15Zm0 30 10 7.5v15L255 95l-10-7.5v-15Zm0 30 10 7.5v15l-10 7.5-10-7.5v-15Zm0 30 10 7.5v15l-10 7.5-10-7.5v-15Zm0 30 10 7.5v15l-10 7.5-10-7.5v-15Zm0 30 10 7.5v15l-10 7.5-10-7.5v-15Zm0 30 10 7.5v15l-10 7.5-10-7.5v-15Zm0 30 10 7.5v15l-10 7.5-10-7.5v-15Zm0 30 10 7.5v15l-10 7.5-10-7.5v-15Zm0 30 10 7.5v15l-10 7.5-10-7.5v-15Zm0 30 10 7.5v15l-10 7.5-10-7.5v-15Zm0 30 10 7.5v15l-10 7.5-10-7.5v-15Zm0 30 10 7.5v15l-10 7.5-10-7.5v-15Zm0 30 10 7.5v15l-10 7.5-10-7.5v-15Zm0 30 10 7.5v15l-10 7.5-10-7.5v-15Zm30-480 10 7.5v15L285 5l-10-7.5v-15Zm0 30 10 7.5v15L285 35l-10-7.5v-15Zm0 30 10 7.5v15L285 65l-10-7.5v-15Zm0 30 10 7.5v15L285 95l-10-7.5v-15Zm0 30 10 7.5v15l-10 7.5-10-7.5v-15Zm0 30 10 7.5v15l-10 7.5-10-7.5v-15Zm0 30 10 7.5v15l-10 7.5-10-7.5v-15Zm0 30 10 7.5v15l-10 7.5-10-7.5v-15Zm0 30 10 7.5v15l-10 7.5-10-7.5v-15Zm0 30 10 7.5v15l-10 7.5-10-7.5v-15Zm0 30 10 7.5v15l-10 7.5-10-7.5v-15Zm0 30 10 7.5v15l-10 7.5-10-7.5v-15Zm0 30 10 7.5v15l-10 7.5-10-7.5v-15Zm0 30 10 7.5v15l-10 7.5-10-7.5v-15Zm0 30 10 7.5v15l-10 7.5-10-7.5v-15Zm0 30 10 7.5v15l-10 7.5-10-7.5v-15Zm0 30 10 7.5v15l-10 7.5-10-7.5v-15Zm30-480 10 7.5v15L315 5l-10-7.5v-15Zm0 30 10 7.5v15L315 35l-10-7.5v-15Zm0 30 10 7.5v15L315 65l-10-7.5v-15Zm0 30 10 7.5v15L315 95l-10-7.5v-15Zm0 30 10 7.5v15l-10 7.5-10-7.5v-15Zm0 30 10 7.5v15l-10 7.5-10-7.5v-15Zm0 30 10 7.5v15l-10 7.5-10-7.5v-15Zm0 30 10 7.5v15l-10 7.5-10-7.5v-15Zm0 30 10 7.5v15l-10 7.5-10-7.5v-15Zm0 30 10 7.5v15l-10 7.5-10-7.5v-15Zm0 30 10 7.5v15l-10 7.5-10-7.5v-15Zm0 30 10 7.5v15l-10 7.5-10-7.5v-15Zm0 30 10 7.5v15l-10 7.5-10-7.5v-15Zm0 30 10 7.5v15l-10 7.5-10-7.5v-15Zm0 30 10 7.5v15l-10 7.5-10-7.5v-15Zm0 30 10 7.5v15l-10 7.5-10-7.5v-15Zm0 30 10 7.5v15l-10 7.5-10-7.5v-15Z" opacity=".3"/><path stroke="#000" d="M0 1h300M0 4h300M0 7h300M0 10h300M0 13h300M0 16h300M0 19h300M0 22h300M0 25h300M0 28h300M0 31h300M0 34h300M0 37h300M0 40h300M0 43h300M0 46h300M0 49h300M0 52h300M0 55h300M0 58h300M0 61h300M0 64h300M0 67h300M0 70h300M0 73h300M0 76h300M0 79h300M0 82h300M0 85h300M0 88h300M0 91h300M0 94h300M0 97h300M0 100h300M0 103h300M0 106h300M0 109h300M0 112h300M0 115h300M0 118h300M0 121h300M0 124h300M0 127h300M0 130h300M0 133h300M0 136h300M0 139h300M0 142h300M0 145h300M0 148h300M0 151h300M0 154h300M0 157h300M0 160h300M0 163h300M0 166h300M0 169h300M0 172h300M0 175h300M0 178h300M0 181h300M0 184h300M0 187h300M0 190h300M0 193h300M0 196h300M0 199h300M0 202h300M0 205h300M0 208h300M0 211h300M0 214h300M0 217h300M0 220h300M0 223h300M0 226h300M0 229h300M0 232h300M0 235h300M0 238h300M0 241h300M0 244h300M0 247h300M0 250h300M0 253h300M0 256h300M0 259h300M0 262h300M0 265h300M0 268h300M0 271h300M0 274h300M0 277h300M0 280h300M0 283h300M0 286h300M0 289h300M0 292h300M0 295h300M0 298h300M0 301h300M0 304h300M0 307h300M0 310h300M0 313h300M0 316h300M0 319h300M0 322h300M0 325h300M0 328h300M0 331h300M0 334h300M0 337h300M0 340h300M0 343h300M0 346h300M0 349h300M0 352h300M0 355h300M0 358h300M0 361h300M0 364h300M0 367h300M0 370h300M0 373h300M0 376h300M0 379h300M0 382h300M0 385h300M0 388h300M0 391h300M0 394h300M0 397h300M0 400h300M0 403h300M0 406h300M0 409h300M0 412h300M0 415h300M0 418h300M0 421h300M0 424h300M0 427h300M0 430h300M0 433h300M0 436h300M0 439h300M0 442h300M0 445h300M0 448h300" opacity=".3"/><path fill="none" stroke="red" stroke-width="2" d="M10 0h280l10 10v430l-10 10H10L0 440V10Z"/><text x="150" y="40" fill="red" font-family="monospace" font-size="30" font-weight="bold" text-anchor="middle">MAFIA</text><text x="150" y="65" fill="#F90" font-family="monospace" font-size="14" text-anchor="middle">SEELE AGENT</text><path stroke="red" stroke-width="2" d="m150 120 40 20v40l-40 20-40-20v-40z"/><ellipse cx="150" cy="160" fill="none" stroke="red" stroke-width="1.5" rx="25" ry="15"/><circle cx="150" cy="160" r="8" fill="red"/><circle cx="150" cy="160" r="3"/><path stroke="red" d="M20 220h100v120H20z"/><text x="25" y="240" fill="#0F0" font-family="monospace" font-size="10">OBJECTIVE:</text><text x="25" y="255" fill="#FFF" font-family="monospace" font-size="10">ELIMINATE</text><text x="25" y="270" fill="#FFF" font-family="monospace" font-size="10">CIVILIANS</text><path stroke="#0F0" stroke-width=".5" d="M25 290h90"/><text x="30" y="298" fill="#0F0" font-family="monospace" font-size="8">DATA-001: 000</text><path stroke="#0F0" stroke-width=".5" d="M25 300h90"/><text x="30" y="308" fill="#0F0" font-family="monospace" font-size="8">DATA-002: 025</text><path stroke="#0F0" stroke-width=".5" d="M25 310h90"/><text x="30" y="318" fill="#0F0" font-family="monospace" font-size="8">DATA-003: 050</text><path stroke="#0F0" stroke-width=".5" d="M25 320h90"/><text x="30" y="328" fill="#0F0" font-family="monospace" font-size="8">DATA-004: 075</text><path stroke="#0F0" stroke-width=".5" d="M25 330h90"/><text x="30" y="338" fill="#0F0" font-family="monospace" font-size="8">DATA-005: 100</text><path stroke="red" d="M180 220h100v120H180z"/><text x="185" y="240" fill="#0F0" font-family="monospace" font-size="10">ABILITIES:</text><text x="185" y="255" fill="#FFF" font-family="monospace" font-size="10">- NIGHT KILL</text><text x="185" y="270" fill="#FFF" font-family="monospace" font-size="10">- TEAM COMM</text><text x="185" y="285" fill="#FFF" font-family="monospace" font-size="10">- DECEPTION</text><path fill="none" stroke="#F90" d="M185 300h90v30h-90z"/><text x="230" y="315" fill="#F90" font-family="monospace" font-size="10" text-anchor="middle">!WARNING!</text><text x="230" y="325" fill="#F90" font-family="monospace" font-size="8" text-anchor="middle">MAINTAIN COVER</text><path fill="none" stroke="#0F0" d="M20 360h260v30H20z"/><path d="M22 362h256v26H22z"/><path fill="#0F0" fill-opacity=".3" d="M22 362h180v26H22z"/><text x="150" y="380" fill="#0F0" font-family="monospace" font-size="12" text-anchor="middle">SECURITY CLEARANCE: LEVEL 5</text><text x="150" y="420" fill="red" font-family="monospace" font-size="18" font-weight="bold" text-anchor="middle">SEELE</text><text x="150" y="435" fill="#FFF" font-family="monospace" font-size="10" text-anchor="middle">CONFIDENTIAL</text></svg>